<svg width="229" height="162" viewBox="0 0 229 162" fill="none" xmlns="http://www.w3.org/2000/svg">
<path d="M182.313 1.75H225.423C227.32 1.75019 228.425 3.90513 227.32 5.44141V5.44238L177.952 74.167L177.788 74.3965V74.4102C170.716 84.4849 170.769 97.9434 177.959 107.958L212.679 156.308L212.68 156.309C213.787 157.847 212.686 160 210.783 160H167.68C165.901 160 164.225 159.141 163.186 157.688L163.185 157.686L145.165 132.581L160.513 111.207C169.163 99.1577 169.163 82.976 160.513 70.9189L145.165 49.5361L177.809 4.06543C178.857 2.60879 180.534 1.75 182.313 1.75Z" fill="#D9D9D9"/>
<path d="M182.313 1.75H225.423C227.32 1.75019 228.425 3.90513 227.32 5.44141V5.44238L177.952 74.167L177.788 74.3965V74.4102C170.716 84.4849 170.769 97.9434 177.959 107.958L212.679 156.308L212.68 156.309C213.787 157.847 212.686 160 210.783 160H167.68C165.901 160 164.225 159.141 163.186 157.688L163.185 157.686L145.165 132.581L160.513 111.207C169.163 99.1577 169.163 82.976 160.513 70.9189L145.165 49.5361L177.809 4.06543C178.857 2.60879 180.534 1.75 182.313 1.75Z" fill="url(#paint0_linear_6729_24168)"/>
<path d="M182.313 1.75H225.423C227.32 1.75019 228.425 3.90513 227.32 5.44141V5.44238L177.952 74.167L177.788 74.3965V74.4102C170.716 84.4849 170.769 97.9434 177.959 107.958L212.679 156.308L212.68 156.309C213.787 157.847 212.686 160 210.783 160H167.68C165.901 160 164.225 159.141 163.186 157.688L163.185 157.686L145.165 132.581L160.513 111.207C169.163 99.1577 169.163 82.976 160.513 70.9189L145.165 49.5361L177.809 4.06543C178.857 2.60879 180.534 1.75 182.313 1.75Z" stroke="white" stroke-width="1.75"/>
<path d="M182.313 1.75H225.423C227.32 1.75019 228.425 3.90513 227.32 5.44141V5.44238L177.952 74.167L177.788 74.3965V74.4102C170.716 84.4849 170.769 97.9434 177.959 107.958L212.679 156.308L212.68 156.309C213.787 157.847 212.686 160 210.783 160H167.68C165.901 160 164.225 159.141 163.186 157.688L163.185 157.686L145.165 132.581L160.513 111.207C169.163 99.1577 169.163 82.976 160.513 70.9189L145.165 49.5361L177.809 4.06543C178.857 2.60879 180.534 1.75 182.313 1.75Z" stroke="url(#paint1_linear_6729_24168)" stroke-width="1.75"/>
<path fill-rule="evenodd" clip-rule="evenodd" d="M103.503 75.9065C107.261 68.7837 109.389 60.6676 109.389 52.0546C109.389 41.9495 106.459 32.5316 101.404 24.6016H116.008C118.078 24.6016 120.011 25.5963 121.223 27.2729L155.268 74.6833C162.296 84.4702 162.296 97.6504 155.268 107.437V107.445L118.816 158.193C117.613 159.87 115.671 160.864 113.602 160.864H70.5072C67.892 160.864 66.3759 157.904 67.9 155.786L114.388 91.0643L103.503 75.9065Z" fill="#262626"/>
<path fill-rule="evenodd" clip-rule="evenodd" d="M102.963 75.9146C106.723 68.7907 108.852 60.6728 108.852 52.0576C108.852 41.9579 105.925 32.5446 100.875 24.6172H115.43C117.499 24.6172 119.433 25.6119 120.644 27.2885L121.454 28.4196C132.621 43.9664 132.621 64.912 121.454 80.4588H121.462L113.849 91.0719L102.963 75.9146Z" fill="#D9D9D9"/>
<path fill-rule="evenodd" clip-rule="evenodd" d="M102.963 75.9146C106.723 68.7907 108.852 60.6728 108.852 52.0576C108.852 41.9579 105.925 32.5446 100.875 24.6172H115.43C117.499 24.6172 119.433 25.6119 120.644 27.2885L121.454 28.4196C132.621 43.9664 132.621 64.912 121.454 80.4588H121.462L113.849 91.0719L102.963 75.9146Z" fill="url(#paint2_linear_6729_24168)"/>
<path d="M121.603 80.371L114.003 90.963L105.875 79.651C119.299 67.467 130.347 52.899 122.635 29.875C133.339 45.931 131.795 66.411 121.603 80.371Z" fill="url(#paint3_linear_6729_24168)"/>
<path d="M72.6323 2.96074C67.4421 1.72534 61.7464 1.04346 55.5694 0.931154H55.5373C54.7512 0.875 53.965 0.875 53.1468 0.875H3.69074C2.14249 0.875 0.875 2.14249 0.875 3.69074V157.538C0.875 159.086 2.14249 160.354 3.69074 160.354H36.878C38.4584 160.354 39.6938 159.086 39.6938 157.538V105.94C39.6938 104.384 40.9612 103.124 42.5095 103.124H53.1307C53.5559 103.124 54.0051 103.124 54.4303 103.092C62.3481 103.012 69.4877 102.049 75.8011 100.132H75.8331C95.407 92.9442 109.389 74.1325 109.389 52.0557C109.389 28.7918 93.8587 9.16981 72.6243 2.96074H72.6323ZM66.7923 67.0089C63.1503 70.4744 57.6231 72.2232 50.2107 72.2232H42.5175C40.9693 72.2232 39.7018 70.9557 39.7018 69.4075V35.065C39.7018 33.5168 40.9693 32.2493 42.5175 32.2493H50.2107C57.6311 32.2493 63.1503 33.9981 66.7923 37.4957C70.4263 40.9612 72.2312 45.9028 72.2312 52.2403C72.2312 58.5777 70.4263 63.5273 66.7923 67.0249V67.0089Z" fill="#262626" stroke="#262626" stroke-width="1.75"/>
<defs>
<linearGradient id="paint0_linear_6729_24168" x1="144.087" y1="80.879" x2="228.64" y2="80.879" gradientUnits="userSpaceOnUse">
<stop stop-color="#F26334"/>
<stop offset="1" stop-color="#FE812F"/>
</linearGradient>
<linearGradient id="paint1_linear_6729_24168" x1="144.087" y1="80.879" x2="228.64" y2="80.879" gradientUnits="userSpaceOnUse">
<stop stop-color="#F26334"/>
<stop offset="1" stop-color="#FE812F"/>
</linearGradient>
<linearGradient id="paint2_linear_6729_24168" x1="100.875" y1="57.8462" x2="129.83" y2="57.8462" gradientUnits="userSpaceOnUse">
<stop stop-color="#F26334"/>
<stop offset="1" stop-color="#FE812F"/>
</linearGradient>
<linearGradient id="paint3_linear_6729_24168" x1="100.939" y1="70.099" x2="122.003" y2="58.371" gradientUnits="userSpaceOnUse">
<stop stop-color="#F46833" stop-opacity="0"/>
<stop offset="1" stop-opacity="0.8"/>
</linearGradient>
</defs>
</svg>
