<?xml version="1.0" encoding="UTF-8"?>
<svg id="Layer_1" data-name="Layer 1" xmlns="http://www.w3.org/2000/svg" xmlns:xlink="http://www.w3.org/1999/xlink" viewBox="0 0 3771.91 1000">
  <defs>
    <style>
      .cls-1 {
        fill: url(#linear-gradient-13);
      }

      .cls-2 {
        fill: url(#linear-gradient-2);
      }

      .cls-3 {
        fill: url(#linear-gradient-10);
      }

      .cls-4 {
        fill: url(#linear-gradient-12);
      }

      .cls-5 {
        fill: #262626;
      }

      .cls-6 {
        fill: url(#linear-gradient-4);
      }

      .cls-7 {
        fill: url(#linear-gradient-3);
      }

      .cls-8 {
        fill: url(#linear-gradient-5);
      }

      .cls-9 {
        fill: url(#linear-gradient-8);
      }

      .cls-10 {
        fill: url(#linear-gradient-7);
      }

      .cls-11 {
        fill: url(#linear-gradient-9);
      }

      .cls-12 {
        fill: url(#linear-gradient-11);
      }

      .cls-13 {
        fill: url(#linear-gradient-6);
      }

      .cls-14 {
        fill: url(#linear-gradient);
      }
    </style>
    <linearGradient id="linear-gradient" x1="69.39" y1="212.82" x2="298.13" y2="382.41" gradientTransform="translate(454.86 -82.33) rotate(55.9)" gradientUnits="userSpaceOnUse">
      <stop offset="0" stop-color="#f26334"/>
      <stop offset="1" stop-color="#fe812f"/>
    </linearGradient>
    <linearGradient id="linear-gradient-2" x1="834.92" y1="157.92" x2="669.28" y2="359.05" gradientTransform="translate(496.01 -429.46) rotate(50.23)" xlink:href="#linear-gradient"/>
    <linearGradient id="linear-gradient-3" x1="256.02" y1="856.22" x2="424.62" y2="652.13" gradientTransform="matrix(1,0,0,1,0,0)" xlink:href="#linear-gradient"/>
    <linearGradient id="linear-gradient-4" x1="832.46" y1="155.89" x2="666.82" y2="357.02" gradientTransform="matrix(1,0,0,1,0,0)" xlink:href="#linear-gradient"/>
    <linearGradient id="linear-gradient-5" x1="87.4" y1="228.1" x2="316.14" y2="397.68" gradientTransform="matrix(1,0,0,1,0,0)" xlink:href="#linear-gradient"/>
    <linearGradient id="linear-gradient-6" x1="244.06" y1="871.94" x2="412.65" y2="667.85" gradientTransform="matrix(1,0,0,1,0,0)" xlink:href="#linear-gradient"/>
    <linearGradient id="linear-gradient-7" x1="1071.04" y1="672.34" x2="3597.04" y2="843.9" gradientTransform="matrix(1,0,0,1,0,0)" xlink:href="#linear-gradient"/>
    <linearGradient id="linear-gradient-8" x1="1068.71" y1="706.63" x2="3594.71" y2="878.19" gradientTransform="matrix(1,0,0,1,0,0)" xlink:href="#linear-gradient"/>
    <linearGradient id="linear-gradient-9" x1="1070.53" y1="679.81" x2="3596.53" y2="851.36" gradientTransform="matrix(1,0,0,1,0,0)" xlink:href="#linear-gradient"/>
    <linearGradient id="linear-gradient-10" x1="1072.38" y1="652.56" x2="3598.38" y2="824.12" gradientTransform="matrix(1,0,0,1,0,0)" xlink:href="#linear-gradient"/>
    <linearGradient id="linear-gradient-11" x1="1074.24" y1="625.14" x2="3600.24" y2="796.7" gradientTransform="matrix(1,0,0,1,0,0)" xlink:href="#linear-gradient"/>
    <linearGradient id="linear-gradient-12" x1="1076.05" y1="598.49" x2="3602.05" y2="770.04" gradientTransform="matrix(1,0,0,1,0,0)" xlink:href="#linear-gradient"/>
    <linearGradient id="linear-gradient-13" x1="1080.79" y1="528.7" x2="3606.79" y2="700.25" gradientTransform="matrix(1,0,0,1,0,0)" xlink:href="#linear-gradient"/>
  </defs>
  <g>
    <rect class="cls-14" x="285.71" y="284.58" width="38.61" height="205.86" transform="translate(-186.87 422.79) rotate(-55.9)"/>
    <rect class="cls-2" x="582.81" y="295.04" width="246.58" height="38.61" transform="translate(12.79 655.98) rotate(-50.23)"/>
    <polygon class="cls-7" points="341.26 785.24 311.57 760.54 428.96 614.65 458.65 639.34 341.26 785.24"/>
    <circle class="cls-5" cx="534.46" cy="505.64" r="167.97"/>
    <path class="cls-6" d="M851.77,154.09c-32.4-36.52-88.46-39.86-124.97-7.46-36.51,32.4-39.86,88.46-7.46,124.97h0c17.47,19.69,41.81,29.73,66.27,29.73,20.9,0,41.88-7.34,58.71-22.27,36.51-32.4,39.86-88.46,7.46-124.97Z"/>
    <path class="cls-8" d="M287.03,195.85c-26.23-29.57-62.41-47.14-101.87-49.5-39.45-2.3-77.46,10.8-107.03,37.03-29.56,26.23-47.14,62.41-49.5,101.86-2.36,39.46,10.79,77.47,37.03,107.03,29.2,32.91,69.89,49.7,110.76,49.7,34.94,0,70.01-12.27,98.13-37.22,61.03-54.16,66.62-147.87,12.47-208.89Z"/>
    <path class="cls-13" d="M240.23,709.81c-44.33,39.34-48.39,107.41-9.06,151.73,21.21,23.9,50.77,36.1,80.46,36.1,25.37,0,50.85-8.91,71.28-27.04,44.33-39.34,48.39-107.41,9.06-151.73-39.33-44.33-107.4-48.39-151.73-9.06Z"/>
  </g>
  <g>
    <path class="cls-10" d="M1363.1,767.28c-5.25,20.59-16.06,36.84-32.14,48.3-16.22,11.55-38.23,17.42-65.42,17.42-25.12,0-46.87-5.9-64.63-17.54-17.78-11.65-31.58-28.49-41.02-50.04-9.58-21.85-14.44-48.47-14.44-79.11s4.86-57.37,14.45-79.45c9.44-21.76,23.24-38.7,41.01-50.34,17.77-11.65,39.52-17.55,64.63-17.55,27.13,0,49.2,6.27,65.62,18.63,16.3,12.28,27.02,30.01,31.89,52.72l.98,4.58h111.49l-1.17-6.78c-8.87-51.4-31.86-91.91-68.33-120.38-36.36-28.37-83.19-42.75-139.18-42.75-46.28,0-86.8,10.33-120.45,30.69-33.68,20.39-59.95,49.13-78.1,85.42-18.06,36.1-27.21,78.24-27.21,125.23s9.16,89.03,27.22,124.91c18.15,36.09,44.43,64.61,78.12,84.78,33.62,20.13,74.13,30.35,120.43,30.35,55.98,0,102.79-14.04,139.13-41.74,36.48-27.8,59.49-66.45,68.37-114.85l1.26-6.84h-111.38l-1.11,4.36Z"/>
    <path class="cls-9" d="M1784.29,594.66c-25.87-14.94-55.45-22.51-87.9-22.51s-62.04,7.58-87.9,22.51c-25.9,14.96-46.6,36.12-61.53,62.86-14.91,26.7-22.48,57.77-22.48,92.37s7.56,64.38,22.47,91.07c14.94,26.77,35.64,47.92,61.54,62.87,25.87,14.94,55.22,22.51,87.25,22.51s62.57-7.58,88.24-22.52c25.65-14.94,46.33-35.96,61.49-62.48,15.14-26.51,22.82-57.49,22.82-92.09s-7.56-65.55-22.48-92.06c-14.95-26.53-35.64-47.56-61.52-62.52ZM1754.44,797.98c-6.21,12.81-14.35,22.49-24.19,28.79-9.82,6.28-21.43,9.47-34.51,9.47-12.25,0-23.55-3.19-33.59-9.5-10.02-6.29-18.13-15.94-24.11-28.7-6.09-13-9.18-29.42-9.18-48.81s3.09-35.8,9.19-48.8c5.97-12.74,14.18-22.39,24.39-28.67,10.28-6.32,21.7-9.52,33.95-9.52s24.18,3.19,34.23,9.5c10.02,6.29,18.14,15.95,24.11,28.69,6.1,13.02,9.19,29.44,9.19,48.81s-3.19,35.75-9.48,48.74Z"/>
    <path class="cls-11" d="M2204.25,590.2c-19.46-11.98-43.4-18.06-71.17-18.06s-50.31,5.96-69.53,17.72c-14.27,8.73-26.21,19.58-35.68,32.38l-5.16-42.32h-90.73v338.62h102.43v-180.34c0-16.74,2.95-31.03,8.78-42.47,5.72-11.27,13.82-20.09,24.08-26.2,10.29-6.13,21.95-9.24,34.67-9.24,21.23,0,36.19,5.95,45.72,18.2,9.74,12.52,14.68,30.87,14.68,54.52v185.53h101.78v-193.97c0-32.25-5.08-59.9-15.11-82.19-10.17-22.6-25.22-40.16-44.74-52.2Z"/>
    <path class="cls-3" d="M2607.2,590.2c-19.46-11.98-43.4-18.06-71.17-18.06s-50.31,5.96-69.53,17.72c-14.27,8.73-26.21,19.58-35.68,32.38l-5.16-42.32h-90.73v338.62h102.43v-180.34c0-16.74,2.95-31.03,8.78-42.47,5.72-11.27,13.82-20.09,24.08-26.2,10.29-6.13,21.95-9.24,34.67-9.24,21.23,0,36.19,5.95,45.72,18.2,9.74,12.52,14.68,30.87,14.68,54.52v185.53h101.78v-193.97c0-32.25-5.08-59.9-15.11-82.19-10.17-22.6-25.22-40.16-44.74-52.2Z"/>
    <path class="cls-12" d="M2990.24,594.35c-25.23-14.73-54.92-22.2-88.25-22.2s-65.44,7.92-91.55,23.53c-26.11,15.63-46.69,37.23-61.18,64.2-14.45,26.9-21.78,58.06-21.78,92.61s7.46,64.7,22.16,90.77c14.75,26.14,35.48,46.75,61.61,61.27,26.07,14.48,56.38,21.82,90.09,21.82,26.69,0,51.09-5.1,72.54-15.15,21.39-10.02,39.82-23.71,54.77-40.67,14.98-16.99,25.75-36.27,32.03-57.33l2.22-7.45h-104.14l-1.6,3.2c-4.69,9.38-11.75,17.12-20.98,23.01-9.17,5.86-21.11,8.82-35.49,8.82s-27.21-3.22-37.93-9.57c-10.66-6.31-19.08-15.45-25.04-27.16-3.99-7.85-6.68-16.65-8.05-26.3h238.27l.71-4.98c.88-6.2,1.44-12.06,1.67-17.45.22-5.45.33-10.19.33-14.51,0-32.43-7.13-61.55-21.18-86.55-14.07-25.01-33.99-45.17-59.23-59.91ZM2838.36,694.8c6.36-12.33,15.2-21.79,26.28-28.13,11.18-6.38,23.75-9.62,37.36-9.62,18.14,0,32.9,5.35,45.11,16.35,10.76,9.71,17.08,22.05,19.22,37.6h-134.02c1.54-5.96,3.56-11.37,6.06-16.21Z"/>
    <path class="cls-4" d="M3354.44,794.73c-1.96,9.03-5.76,16.54-11.6,22.97-5.91,6.49-12.87,11.47-20.7,14.79-7.89,3.36-17.17,5.06-27.58,5.06s-19.39-2.01-28.1-5.97c-8.65-3.92-16.13-9.71-22.24-17.21-6.21-7.6-11.1-16.89-14.54-27.63-3.48-10.81-5.24-23.43-5.24-37.48,0-18.51,3.09-34.5,9.19-47.5,6-12.8,14.36-22.8,24.87-29.74,10.45-6.9,22.58-10.4,36.07-10.4,15.13,0,28.31,3.9,39.15,11.58,10.8,7.66,17.59,17.91,20.75,31.32l1.05,4.47h108.34l-1.39-6.93c-8.03-40.15-27.2-72.2-56.97-95.27-29.68-22.98-66.57-34.63-109.63-34.63-34.2,0-64.87,7.8-91.17,23.18-26.3,15.38-47.21,36.63-62.15,63.15-14.92,26.49-22.49,57.47-22.49,92.07s7.57,64.18,22.49,90.45c14.93,26.32,35.85,47.35,62.17,62.51,26.3,15.15,56.75,22.83,90.49,22.83,43.08,0,80.08-11.76,109.97-34.96,29.97-23.26,49.25-54.97,57.28-94.26l1.42-6.95h-108.45l-.99,4.56Z"/>
    <path class="cls-1" d="M3743.54,667.44v-87.5h-85.65v-90.19h-91.45l-9.73,90.19h-57.05v87.5h56.45v129.18c0,29.86,5.05,53.96,15.02,71.62,10.11,17.94,24.7,31.01,43.36,38.84,18.14,7.62,39.3,11.48,62.91,11.48h65.49v-88.8h-48.62c-13.61,0-23.11-2.34-28.26-6.96-4.96-4.44-7.48-13.03-7.48-25.53v-129.82h85Z"/>
  </g>
  <g>
    <path class="cls-5" d="M1087.12,382.23v-254.12h96.57c20.57,0,37.63,3.51,51.19,10.53,13.55,7.02,23.65,16.52,30.31,28.5,6.65,11.98,9.98,25.59,9.98,40.84,0,14.04-3.21,27.05-9.62,39.03-6.42,11.98-16.4,21.73-29.95,29.22-13.56,7.5-30.86,11.25-51.91,11.25h-45.74v94.75h-50.82ZM1137.94,246.46h42.47c15.25,0,26.19-3.51,32.85-10.53,6.65-7.02,9.98-16.34,9.98-27.95s-3.33-21.54-9.98-28.32c-6.66-6.77-17.61-10.17-32.85-10.17h-42.47v76.96Z"/>
    <path class="cls-5" d="M1310.74,382.23v-182.97h45.02l4.72,33.76c4.59-7.99,10.16-14.76,16.7-20.33,6.53-5.56,14.16-9.92,22.87-13.07,8.71-3.14,18.15-4.72,28.32-4.72v53.73h-17.06c-7.26,0-13.98.85-20.15,2.54-6.17,1.7-11.5,4.42-15.97,8.17-4.48,3.76-7.87,8.84-10.17,15.25-2.3,6.42-3.45,14.46-3.45,24.14v83.5h-50.82Z"/>
    <path class="cls-5" d="M1487.17,175.67c-9.2,0-16.7-2.72-22.51-8.17-5.81-5.45-8.71-12.16-8.71-20.15s2.9-15,8.71-20.33c5.81-5.32,13.31-7.99,22.51-7.99s16.7,2.67,22.51,7.99c5.81,5.33,8.71,12.1,8.71,20.33s-2.9,14.7-8.71,20.15c-5.81,5.45-13.31,8.17-22.51,8.17ZM1461.76,382.23v-182.97h50.82v182.97h-50.82Z"/>
    <path class="cls-5" d="M1561.23,382.23v-182.97h44.65l3.63,29.77c5.56-10.16,13.49-18.39,23.78-24.69,10.28-6.29,22.69-9.44,37.21-9.44s27.71,3.21,38.12,9.62c10.4,6.42,18.33,15.67,23.78,27.77,5.45,12.1,8.17,26.99,8.17,44.65v105.28h-50.46v-100.56c0-14.03-2.97-24.87-8.89-32.49-5.93-7.62-15.31-11.44-28.13-11.44-7.75,0-14.77,1.88-21.06,5.63-6.3,3.75-11.2,9.08-14.7,15.97-3.51,6.9-5.26,15.31-5.26,25.23v97.66h-50.82Z"/>
    <path class="cls-5" d="M1869.8,382.23c-12.83,0-24.14-2.05-33.94-6.17-9.8-4.11-17.37-10.89-22.69-20.33-5.33-9.44-7.99-22.26-7.99-38.48v-75.51h-31.58v-42.47h31.58l5.45-50.46h45.02v50.46h47.92v42.47h-47.56v75.87c0,7.99,1.75,13.56,5.26,16.7,3.51,3.15,9.5,4.72,17.97,4.72h23.96v43.2h-33.4Z"/>
    <path class="cls-5" d="M1933.33,382.23l80.23-128.88-81.32-125.25h58.81l55.18,85.31,50.1-85.31h57.36l-79.5,127.42,81.68,126.7h-58.45l-55.91-86.76-50.46,86.76h-57.72Z"/>
    <path class="cls-5" d="M2190.71,462.1V199.26h45.02l5.81,24.69c3.63-5.08,8.11-9.86,13.43-14.34,5.32-4.48,11.67-8.04,19.06-10.71,7.38-2.66,15.91-3.99,25.59-3.99,16.94,0,32,4.24,45.2,12.71,13.19,8.47,23.53,19.91,31.04,34.31,7.5,14.4,11.25,30.8,11.25,49.19s-3.87,34.79-11.62,49.19c-7.75,14.4-18.15,25.72-31.22,33.94-13.07,8.23-27.83,12.34-44.29,12.34-13.31,0-24.87-2.42-34.67-7.26s-17.73-11.62-23.78-20.33v103.1h-50.82ZM2287.64,342.3c9.2,0,17.43-2.18,24.69-6.53s12.94-10.4,17.06-18.15c4.11-7.74,6.17-16.57,6.17-26.5s-2.06-19.12-6.17-26.86c-4.12-7.74-9.8-13.85-17.06-18.33-7.26-4.48-15.49-6.72-24.69-6.72s-17.73,2.24-24.87,6.72c-7.14,4.48-12.77,10.59-16.88,18.33-4.12,7.75-6.17,16.58-6.17,26.5s2.05,19.12,6.17,26.86c4.11,7.75,9.74,13.79,16.88,18.15,7.14,4.36,15.43,6.53,24.87,6.53Z"/>
    <path class="cls-5" d="M2491.3,386.59c-15.01,0-27.53-2.48-37.57-7.44-10.05-4.96-17.43-11.62-22.14-19.97-4.72-8.35-7.08-17.61-7.08-27.77,0-10.89,2.78-20.57,8.35-29.04,5.56-8.47,14.16-15.12,25.77-19.97,11.62-4.84,26.14-7.26,43.56-7.26h45.02c0-8.71-1.15-15.91-3.45-21.6-2.3-5.68-5.93-9.98-10.89-12.89-4.96-2.9-11.56-4.36-19.79-4.36-8.96,0-16.52,1.94-22.69,5.81-6.17,3.87-9.98,9.68-11.44,17.43h-49.37c1.45-13.07,5.81-24.38,13.07-33.94,7.26-9.56,17-17.06,29.22-22.51,12.22-5.45,26.08-8.17,41.57-8.17,17.18,0,32.13,2.9,44.83,8.71s22.51,14.16,29.41,25.05c6.9,10.89,10.35,24.32,10.35,40.3v113.27h-42.84l-5.81-27.59c-2.42,4.84-5.51,9.2-9.26,13.07-3.76,3.87-8.05,7.2-12.89,9.98-4.84,2.79-10.23,4.96-16.16,6.53-5.93,1.57-12.52,2.36-19.79,2.36ZM2503.64,347.38c6.05,0,11.49-1.03,16.34-3.09,4.84-2.05,8.95-5.02,12.34-8.89,3.39-3.87,6.17-8.29,8.35-13.25,2.18-4.96,3.63-10.35,4.36-16.15v-.36h-36.67c-7.02,0-12.77.91-17.24,2.72-4.48,1.81-7.8,4.36-9.98,7.62-2.18,3.27-3.27,6.96-3.27,11.07,0,4.36,1.09,8.11,3.27,11.25,2.18,3.15,5.2,5.45,9.08,6.9,3.87,1.45,8.35,2.18,13.43,2.18Z"/>
    <path class="cls-5" d="M2643.77,382.23v-182.97h44.65l3.63,29.77c5.56-10.16,13.49-18.39,23.78-24.69,10.28-6.29,22.69-9.44,37.21-9.44s27.71,3.21,38.12,9.62c10.4,6.42,18.33,15.67,23.78,27.77,5.45,12.1,8.17,26.99,8.17,44.65v105.28h-50.46v-100.56c0-14.03-2.97-24.87-8.89-32.49-5.93-7.62-15.31-11.44-28.13-11.44-7.75,0-14.77,1.88-21.06,5.63-6.3,3.75-11.2,9.08-14.7,15.97-3.51,6.9-5.26,15.31-5.26,25.23v97.66h-50.82Z"/>
    <path class="cls-5" d="M2950.52,386.59c-16.7,0-31.58-4.12-44.65-12.34-13.07-8.22-23.42-19.6-31.04-34.12-7.62-14.52-11.44-30.86-11.44-49.01s3.81-35.15,11.44-49.55c7.62-14.4,18.15-25.77,31.58-34.12,13.43-8.35,28.5-12.52,45.2-12.52,13.07,0,24.44,2.36,34.12,7.08,9.68,4.72,17.54,11.44,23.6,20.15v-101.29h50.82v261.38h-45.02l-5.81-24.69c-3.63,5.08-8.11,9.86-13.43,14.34-5.33,4.48-11.74,8.05-19.24,10.71-7.5,2.66-16.22,3.99-26.14,3.99ZM2962.87,342.3c9.44,0,17.79-2.18,25.05-6.53s12.89-10.4,16.88-18.15c3.99-7.74,5.99-16.7,5.99-26.86s-2-19.12-5.99-26.86c-3.99-7.74-9.62-13.8-16.88-18.15-7.26-4.36-15.61-6.53-25.05-6.53s-17.43,2.18-24.69,6.53c-7.26,4.36-12.89,10.41-16.88,18.15-3.99,7.75-5.99,16.58-5.99,26.5s2,19.18,5.99,27.05c3.99,7.87,9.62,13.98,16.88,18.33s15.49,6.53,24.69,6.53Z"/>
  </g>
</svg>