<?xml version="1.0" encoding="UTF-8"?>
<svg id="Layer_1" data-name="Layer 1" xmlns="http://www.w3.org/2000/svg" viewBox="0 0 2761.74 1104">
  <defs>
    <style>
      .cls-1, .cls-2 {
        fill: #3f3f41;
      }

      .cls-1, .cls-2, .cls-3, .cls-4 {
        stroke-width: 0px;
      }

      .cls-2, .cls-3 {
        fill-rule: evenodd;
      }

      .cls-3, .cls-4 {
        fill: #e85624;
      }
    </style>
  </defs>
  <g>
    <g>
      <path class="cls-2" d="m436.64,835.73c.51-3.2.05-6.67.05-9.8,0-4.55-.95-10.28-.96-14.86-.45-1.62.38-4.31-7.19-2.46-1.17.25-38.12,9.52-41.79,10.45-16.88,4.27-33.79,8.43-50.66,12.69-30.2,7.62-26.55,4.63-22,15.24,4.95,12.59,4.88,16.61,8.75,16.81l11.77-2.45v.07c8.15-1.91,19.06-4.42,29.74-6.89l9.69-2.25,9.05-2.12c11.31-2.7,53.5-11.82,53.55-14.43Z"/>
      <g>
        <path class="cls-2" d="m437.39,835.7c-.71-3.16-.47-6.66-.66-9.78-.28-4.54.3-10.32.03-14.89.35-1.65-.65-4.28,7.02-2.91,1.19.17,38.64,7.12,42.36,7.82,17.12,3.2,34.25,6.3,51.35,9.5,30.62,5.73,26.79,2.97,22.91,13.84-4.15,12.88-3.83,16.88-7.69,17.32l-11.9-1.71.02.07c-8.26-1.4-19.31-3.22-30.13-5.02l-9.81-1.64-9.16-1.55c-11.46-1.99-54.14-8.45-54.35-11.06Z"/>
        <path class="cls-1" d="m552.71,857.15l-11.18-1.6v.02s-.79-.06-.79-.06c-5.78-.98-12.92-2.16-20.39-3.4l-28.71-4.81c-1.95-.34-4.81-.81-8.2-1.36-34.69-5.69-46.15-8.17-46.57-10.11-.5-2.22-.54-4.56-.58-6.83-.02-1.03-.03-2.04-.1-3.02-.14-2.31-.06-4.96.01-7.53.08-2.51.15-5.12.02-7.36v-.07s.01-.07.01-.07c.04-.21.06-.43.08-.66.07-.76.15-1.7,1.01-2.35,1.08-.82,3.16-.91,6.54-.31,1.17.17,38.5,7.09,42.37,7.82,8.53,1.59,17.07,3.16,25.6,4.74,8.59,1.58,17.17,3.16,25.75,4.76,4.69.88,8.57,1.55,11.76,2.11,9.69,1.69,12.96,2.26,13.9,4,.64,1.17.05,2.54-.92,4.82-.44,1.02-.94,2.19-1.44,3.6-1.14,3.55-1.95,6.43-2.59,8.75-1.69,6.06-2.39,8.56-5.53,8.92h-.07Zm-12.42-2.8l.6.03,11.83,1.7c2.28-.29,2.84-1.97,4.57-8.15.65-2.33,1.46-5.22,2.61-8.8.52-1.46,1.05-2.69,1.47-3.68.81-1.91,1.36-3.18.96-3.9-.7-1.29-4.6-1.97-13.15-3.46-3.2-.56-7.08-1.24-11.78-2.12-8.58-1.6-17.16-3.18-25.75-4.76-8.53-1.57-17.07-3.14-25.61-4.74-3.86-.72-41.16-7.64-42.34-7.81-3.01-.54-4.93-.5-5.73.11-.48.37-.53.94-.59,1.6-.02.24-.05.48-.09.71.13,2.28.06,4.88-.02,7.39-.08,2.54-.15,5.17-.01,7.43.06,1,.08,2.03.1,3.07.04,2.22.08,4.51.55,6.63h0c1.61,2.06,32.49,7.13,45.71,9.29,3.4.56,6.26,1.02,8.21,1.36l28.7,4.81c7.2,1.19,14.1,2.34,19.76,3.29Z"/>
      </g>
    </g>
    <g>
      <polygon class="cls-2" points="420.67 787.11 449.73 785.95 449.73 826.68 420.67 826.68 420.67 787.11"/>
      <path class="cls-2" d="m513.38,793.6l-.03-13.39c-6.87.17-8.48.52-17.67,1.18-4.75.34-9.87.68-15.3,1-10.87.65-23,1.27-36,1.86-13,.59-26.88,1.16-41.24,1.71-14.36.55-29.21,1.07-44.14,1.58-59.75,2.04-121.01,3.82-158.82,5.68-51.67,3.72-39.04-1.05-62.46-217.05-17.53-132.12-18.62-109.51,107.82-119.3-.45-3.38-.78-6.82-.97-10.33-.04-.72-.06-1.44-.09-2.16-2.78.15-5.72.32-10.3.73-144.37,12.88-126.03-14.15-109.28,128.59,24.52,232.64,11.3,237.77,65.39,233.77,39.58-2,103.71-3.92,166.26-6.12,15.64-.55,31.18-1.11,46.21-1.7,15.03-.59,29.56-1.2,43.17-1.84,13.61-.64,26.31-1.3,37.69-2.01,5.69-.35,11.05-.71,16.02-1.08,4.98-.37,9.57-.75,13.73-1.13h0Zm54.13-363.09c.02-4.41-.18-8.76-.61-13.03,52.14-4.45,105.97-9.25,109.13-9.18,36.16-2.47,31.13,28.41,32.55,49.55-1.89,56.36.07,129.43-1.86,185.43-1.33,38.5-.66,82.46-4.41,120.48-1.33,32.29-133.31,27.93-188.93,29.84l-.03-13.39c55.42-1.45,174.68,1.58,175.92-27.58,3.58-35.3,2.95-76.12,4.21-111.87,1.84-52-.03-119.84,1.78-172.17-1.35-19.63,3.45-48.3-31.09-46.01-2.88-.05-48.94,3.97-96.66,7.93Z"/>
      <path class="cls-1" d="m182.55,767.99l-.54-5,2.43-.26.42,3.9-.24.03v1.32h-2.07Zm4.53-.02v-2.45s4.9-.02,4.9-.02v2.45s-4.9.02-4.9.02Zm7.37-.04l-.02-2.45,4.91-.03v2.45s-4.89.03-4.89.03Zm7.37-.04v-2.45s4.89-.03,4.89-.03v2.45s-4.89.03-4.89.03Zm7.37-.05l-.02-2.45,4.91-.04.02,2.45-4.91.04Zm7.37-.06l-.02-2.45,4.91-.04.02,2.45-4.91.04Zm7.36-.06l-.02-2.45,4.91-.05.02,2.45-4.91.05Zm7.36-.06l-.02-2.45,4.91-.05.02,2.45-4.91.05Zm7.37-.07l-.02-2.45,4.91-.05.03,2.45-4.91.05Zm7.36-.08l-.02-2.45,4.9-.05.03,2.45-4.91.05Zm7.36-.08l-.03-2.45,4.9-.06.03,2.45-4.91.06Zm7.36-.09l-.03-2.45,4.91-.06.03,2.45-4.91.06Zm7.35-.1l-.03-2.45,4.91-.07.03,2.45-4.91.07Zm7.36-.1l-.03-2.45,4.9-.07.04,2.45-4.9.07Zm7.36-.11l-.03-2.45,4.9-.08.04,2.45-4.91.08Zm7.36-.11l-.04-2.45,4.9-.08.04,2.45-4.91.08Zm7.36-.12l-.04-2.45,4.9-.08.04,2.45-4.9.09Zm7.35-.13l-.04-2.45,4.9-.09.05,2.45-4.91.09Zm7.36-.13l-.05-2.45,4.9-.09.05,2.45-4.9.09Zm7.35-.14l-.05-2.45,4.9-.1.05,2.45-4.9.1Zm7.35-.15l-.05-2.45,4.89-.1.05,2.45-4.9.1Zm7.35-.15l-.05-2.45,4.9-.11.05,2.45-4.9.11Zm7.35-.17l-.05-2.45,4.79-.11.17,2.45-4.9.11Zm7.35-.17l-.06-2.45,4.9-.12.06,2.45-4.9.12Zm7.35-.18l-.06-2.45,4.9-.13.06,2.45-4.9.12Zm7.34-.18l-.06-2.45,4.9-.13.06,2.45-4.9.13Zm7.34-.19l-.06-2.45,4.89-.13.07,2.45-4.9.13Zm7.35-.2l-.07-2.45,4.89-.14.07,2.45-4.9.14Zm7.34-.21l-.07-2.45,4.9-.14.07,2.45-4.89.14Zm7.34-.22l-.07-2.45,4.74-.14.22,2.44-4.9.15Zm7.34-.22l-.08-2.45,4.89-.15.08,2.45-4.9.15Zm7.34-.23l-.08-2.45,4.89-.16.08,2.45-4.89.16Zm7.34-.24l-.08-2.45,4.89-.17.08,2.45-4.89.16Zm7.34-.25l-.08-2.45,4.89-.17.08,2.45-4.89.17Zm7.34-.26l-.08-2.45,4.89-.18.09,2.45-4.89.18Zm7.34-.26l-.09-2.45,4.89-.18.1,2.45-4.89.18Zm7.34-.27l-.1-2.45,4.89-.19.1,2.45-4.89.19Zm7.33-.29l-.1-2.45,4.89-.19.1,2.45-4.89.19Zm7.33-.29l-.1-2.45,4.69-.19.24,1.21.05,1.22-4.89.2Zm7.33-.3l-.1-2.45,4.69-.2.25,1.21.05,1.22-4.89.21Zm7.33-.31l-.1-2.45,4.88-.21.11,2.44-4.89.21Zm7.33-.32l-.11-2.44,4.88-.22.11,2.44-4.88.22Zm7.33-.33l-.11-2.44,4.88-.22.11,2.44-4.88.22Zm7.32-.33l-.12-2.44,4.88-.23.11,2.44-4.88.23Zm-313.97-.12l-.52-4.87,2.43-.26.52,4.87-2.43.26Zm321.3-.23l-.12-2.44,4.88-.23.12,2.44-4.89.23Zm7.32-.35l-.12-2.44,4.88-.24.12,2.44-4.88.24Zm7.56-.37l-.36-2.43,4.88-.25.13,2.44-4.65.24Zm7.09-.36l-.12-2.44,4.88-.25.13,2.44-4.88.25Zm7.32-.38l-.13-2.44,4.88-.26.13,2.44-4.88.26Zm7.32-.39l-.13-2.44,4.88-.26.13,2.44-4.88.26Zm7.32-.4l-.14-2.44,4.88-.27.14,2.44-4.88.27Zm7.32-.41l-.14-2.44,4.88-.28.14,2.44-4.88.28Zm7.31-.42l-.14-2.44,4.87-.28.14,2.44-4.88.28Zm7.58-.44l-.41-2.43,4.87-.29.15,2.44-4.61.27Zm7.32-.44l-.43-2.43,4.87-.3.15,2.44-4.6.28Zm7.03-.43l-.15-2.44,4.87-.3.15,2.44-4.87.3Zm7.31-.45l-.15-2.44,4.87-.31.15,2.44-4.87.31Zm7.31-.47l-.16-2.44,4.87-.32.16,2.44-4.87.32Zm7.31-.47l-.16-2.44,4.87-.32.16,2.44-4.87.32Zm7.3-.48l-.16-2.44,4.87-.33.17,2.44-4.87.33Zm7.31-.5l-.17-2.44,4.87-.33.17,2.44-4.87.34Zm-439.11-.31l-.52-4.87,2.43-.26.52,4.87-2.43.26Zm446.42-.19l-.17-2.44,4.87-.34.17,2.44-4.87.34Zm7.6-.53l-.47-2.42,4.86-.35.18,2.44-4.57.33Zm7.01-.5l-.18-2.44,4.87-.35.18,2.44-4.87.35Zm7.31-.53l-.18-2.44,4.87-.36.18,2.44-4.87.36Zm7.32-.54l-.18-2.44,4.88-.37.19,2.44-4.88.37Zm7.32-.55l-.19-1.31v-1.09s0-.04,0-.04h0v-2.63s2.46.01,2.46.01v4.89s-2.27.17-2.27.17Zm-483.75-4.45l-.52-4.87,2.43-.26.52,4.87-2.43.26Zm486.03-3.06h-2.45s.02-4.91.02-4.91h2.45s-.02,4.91-.02,4.91Zm-486.81-4.24l-.52-4.87,2.43-.26.52,4.87-2.43.26Zm486.83-3.1h-2.45s.01-4.9.01-4.9h2.45s-.01,4.9-.01,4.9Zm-487.62-4.2l-.52-4.87,2.43-.26.52,4.87-2.43.26Zm487.64-3.14h-2.45s.01-4.9.01-4.9h2.45s-.02,4.9-.02,4.9Zm-488.42-4.16l-.52-4.87,2.43-.26.52,4.87-2.43.26Zm488.44-3.18h-2.45s.02-4.91.02-4.91h2.45s-.02,4.91-.02,4.91Zm-489.23-4.12l-.52-4.87,2.43-.26.52,4.87-2.43.26Zm489.25-3.23h-2.45s.01-4.9.01-4.9h2.45s-.01,4.9-.01,4.9Zm-490.03-4.08l-.52-4.87,2.43-.26.52,4.87-2.43.26Zm490.06-3.27h-2.45s.01-4.91.01-4.91h2.45s-.01,4.91-.01,4.91Zm-490.84-4.04l-.52-4.87,2.43-.26.52,4.87-2.43.26Zm490.86-3.31h-2.45s.02-4.91.02-4.91h2.45s-.02,4.91-.02,4.91Zm-491.64-3.99l-.52-4.87,2.43-.26.52,4.87-2.43.26Zm491.67-3.35h-2.45s.02-4.91.02-4.91h2.45s-.02,4.91-.02,4.91Zm-492.45-3.95l-.52-4.87,2.43-.26.52,4.87-2.43.26Zm492.47-3.4h-2.45s.01-4.9.01-4.9h2.45s-.01,4.9-.01,4.9Zm-493.26-3.91l-.52-4.87,2.43-.26.52,4.87-2.43.26Zm493.28-3.44h-2.45s.02-4.91.02-4.91h2.45s-.02,4.91-.02,4.91Zm-494.06-3.87l-.52-4.87,2.43-.26.52,4.87-2.43.26Zm494.08-3.48h-2.45s.02-4.91.02-4.91h2.45s-.02,4.91-.02,4.91Zm-494.87-3.82l-.52-4.87,2.43-.26.52,4.87-2.43.26Zm494.89-3.52h-2.45s.01-4.9.01-4.9h2.45s-.01,4.9-.01,4.9Zm-495.67-3.78l-.52-4.87,2.43-.26.52,4.87-2.43.26Zm495.7-3.56h-2.45s.01-4.9.01-4.9h2.45s-.01,4.9-.01,4.9Zm-496.48-3.74l-.52-4.87,2.43-.26.52,4.87-2.43.26Zm496.5-3.6h-2.45s.02-4.91.02-4.91h2.45s-.02,4.91-.02,4.91Zm-497.28-3.7l-.52-4.87,2.43-.26.52,4.87-2.43.26Zm497.31-3.64h-2.45s.02-4.9.02-4.9h2.45s-.01,4.9-.01,4.9Zm-498.09-3.66l-.52-4.87,2.43-.26.52,4.87-2.43.26Zm498.11-3.69h-2.45s.01-4.91.01-4.91h2.45s-.01,4.91-.01,4.91Zm-498.9-3.61l-.52-4.87,2.43-.26.52,4.87-2.43.26Zm498.92-3.73h-2.45s.02-4.91.02-4.91h2.45s-.02,4.91-.02,4.91Zm-499.7-3.57l-.52-4.87,2.43-.26.52,4.87-2.43.26Zm499.72-3.77h-2.45s.01-4.91.01-4.91h2.45s-.01,4.91-.01,4.91Zm-500.51-3.53l-.52-4.87,2.43-.26.52,4.87-2.43.26Zm500.53-3.81h-2.45s.01-4.91.01-4.91h2.45s-.01,4.91-.01,4.91Zm-501.31-3.49l-.52-4.87,2.43-.26.52,4.87-2.43.26Zm501.33-3.85h-2.45s.02-4.91.02-4.91h2.45s-.02,4.91-.02,4.91Zm-502.12-3.45l-.52-4.87,2.43-.26.52,4.87-2.43.26Zm502.14-3.89h-2.45s.02-4.91.02-4.91h2.45s-.02,4.91-.02,4.91Zm-502.92-3.41l-.52-4.87,2.43-.26.52,4.87-2.43.26Zm502.95-3.93h-2.45s.02-4.91.02-4.91h2.45s-.01,4.91-.01,4.91Zm-503.73-3.37l-.52-4.87,2.43-.26.52,4.87-2.43.26Zm503.75-3.98h-2.45s.02-4.91.02-4.91h2.45s-.02,4.91-.02,4.91Zm-504.53-3.32l-.52-4.87,2.43-.26.52,4.87-2.43.26Zm504.56-4.02h-2.45s.02-4.91.02-4.91h2.45s-.02,4.91-.02,4.91Zm-505.34-3.28l-.52-4.87,2.43-.26.52,4.87-2.43.26Zm505.36-4.06h-2.45s.01-4.9.01-4.9h2.45s-.01,4.9-.01,4.9Zm-506.15-3.24l-.52-4.87,2.43-.26.52,4.87-2.43.26Zm506.17-4.11h-2.45s.01-4.9.01-4.9h2.45s-.02,4.9-.02,4.9Zm-506.95-3.2l-.52-4.87,2.43-.26.52,4.87-2.43.26Zm506.97-4.15h-2.45s.02-4.91.02-4.91h2.45s-.02,4.91-.02,4.91Zm-507.76-3.16l-.52-4.87,2.43-.26.52,4.87-2.43.26Zm507.78-4.19h-2.45s.01-4.9.01-4.9h2.45s-.01,4.9-.01,4.9Zm-508.56-3.12l-.52-4.87,2.43-.26.52,4.87-2.43.26Zm508.59-4.23h-2.45s.02-4.9.02-4.9h2.45s-.01,4.9-.01,4.9Zm-509.37-3.07l-.52-4.87,2.43-.26.52,4.87-2.43.26Zm509.39-4.27h-2.45s.02-4.91.02-4.91h2.45s-.02,4.91-.02,4.91Zm-510.17-3.03l-.52-4.87,2.43-.26.52,4.87-2.43.26Zm510.2-4.31h-2.45s.01-4.9.01-4.9h2.45s-.01,4.9-.01,4.9Zm-510.98-2.99l-.52-4.87,2.43-.26.52,4.87-2.43.26Zm511-4.35h-2.45s.01-4.91.01-4.91h2.45s-.01,4.91-.01,4.91Zm-511.79-2.95l-.52-4.87,2.43-.26.52,4.87-2.43.26Zm511.81-4.4h-2.45s.02-4.91.02-4.91h2.45s-.02,4.91-.02,4.91Zm-512.59-2.91l-.52-4.87,2.43-.26.52,4.87-2.43.26Zm512.61-4.44h-2.45s.02-4.91.02-4.91h2.45s-.02,4.91-.02,4.91Zm-513.4-2.87l-.52-4.87,2.43-.26.52,4.87-2.43.26Zm513.42-4.48h-2.45s.01-4.9.01-4.9h2.45s-.01,4.9-.01,4.9Zm-514.2-2.82l-.52-4.87,2.43-.26.52,4.87-2.43.26Zm2.9-4.25l-.2-2.44,4.88-.4.2,2.44-4.88.4Zm511.32-.27h-2.45s.02-4.91.02-4.91h2.45s-.02,4.91-.02,4.91Zm-504-.34l-.2-2.44,4.88-.4.2,2.44-4.88.4Zm7.32-.6l-.2-2.44,4.88-.4.2,2.44-4.88.4Zm7.32-.6l-.2-2.44,4.88-.4.2,2.44-4.88.4Zm7.32-.6l-.2-2.44,4.88-.4.2,2.44-4.88.4Zm7.32-.6l-.2-2.44,4.88-.4.2,2.44-4.88.4Zm7.32-.6l-.2-2.44,4.88-.4.2,2.44-4.88.4Zm7.32-.6l-.2-2.44,4.88-.4.2,2.44-4.88.4Zm7.32-.6l-.2-2.44,4.88-.4.2,2.44-4.88.4Zm7.32-.6l-.2-2.44,4.88-.4.2,2.44-4.88.4Zm7.32-.6l-.2-2.44,4.88-.4.2,2.44-4.88.4Zm7.32-.6l-.2-2.44,4.88-.4.2,2.44-4.88.4Zm7.32-.6l-.2-2.44,4.88-.4.2,2.44-4.88.4Zm423.51-.4h-2.45s.02-4.91.02-4.91h2.45s-.02,4.91-.02,4.91Zm-416.19-.2l-.2-2.44,4.88-.4.2,2.44-4.88.4Zm7.32-.6l-.2-2.44,4.88-.4.2,2.44-4.88.4Zm408.89-6.55h-2.45s.01-4.9.01-4.9h2.45s-.01,4.9-.01,4.9Zm.02-7.35h-2.45s.01-4.9.01-4.9h2.45s-.01,4.9-.01,4.9Zm.02-7.34h-2.45s.02-4.91.02-4.91h2.45s-.02,4.91-.02,4.91Zm-116.99-2.72l-.2-2.44,4.88-.4.2,2.44-4.88.4Zm7.32-.6l-.2-2.44,4.88-.4.2,2.44-4.88.4Zm7.32-.6l-.2-2.44,4.88-.4.2,2.44-4.88.4Zm7.32-.6l-.2-2.44,4.88-.4.2,2.44-4.88.4Zm7.32-.6l-.2-2.44,4.88-.4.2,2.44-4.88.4Zm7.32-.6l-.2-2.44,4.88-.4.2,2.44-4.88.4Zm7.32-.6l-.2-2.44,4.88-.4.2,2.44-4.88.4Zm7.32-.6l-.2-2.44,4.88-.4.2,2.44-4.88.4Zm65.78-.42h-2.45s.01-4.78.01-4.78l-4.79.39-.2-2.44,4.88-.4.19,2.33h2.36s-.01,4.9-.01,4.9Zm-58.46-.18l-.2-2.44,4.88-.4.2,2.44-4.88.4Zm7.32-.6l-.2-2.44,4.88-.4.2,2.44-4.88.4Zm7.32-.6l-.2-2.44,4.88-.4.2,2.44-4.88.4Zm7.32-.6l-.2-2.44,4.88-.4.2,2.44-4.88.4Zm7.32-.6l-.2-2.44,4.88-.4.2,2.44-4.88.4Zm7.32-.6l-.2-2.44,4.88-.4.2,2.44-4.88.4Zm7.32-.6l-.2-2.44,4.88-.4.2,2.44-4.88.4Z"/>
      <path class="cls-2" d="m406.9,647.25c8.23-.58,19.24-1.18,31.51-1.92.72,2.16,1.21,4.63,1.47,7.42.31,3.31.37,6.13.18,8.45-.14,2.32-.53,4.26-1,5.84-.53,1.54-1.14,2.83-1.88,3.72-.69.94-1.45,1.67-2.18,2.26-.42.28-.9.55-1.42.82-8.76.92-17.07,1.89-23.89,2.6l-2.77-29.18h0Zm-47.76-19.6c-2.82,27.12,5.11,19.45,9.74,22.19,7.69,4.54,6.26-7.12,8.72,27.41-11.29,9.34-14.31,5.31-13.54,22.72,8.63,7.53,12.43,3.78,16.83,13.2,10.91,23.34-21.07,21.9-10.92,40.12,6.38,11.45,55.05,5.79,61.27,5.19l2.36-.21c8.66-.8,16.01-2.35,22.08-4.66,6.13-2.31,11.04-5.33,14.79-9.07,3.76-3.68,6.41-8.04,7.92-13,1.51-4.92,1.97-10.45,1.4-16.51-.43-4.48-1.39-8.6-2.95-12.46-1.51-3.81-3.64-7.16-6.37-10.09-2.77-2.88-6.12-5.29-10.15-7.22-3.98-1.94-8.73-3.25-14.2-3.82-.04-.41,7.28-3.95,8.73-4.97,2.78-1.9,5.16-4.28,7.07-7.12,1.91-2.85,3.38-6.06,4.38-9.75.96-3.63,1.24-7.81.79-12.5-.55-5.8-2.15-10.63-4.86-14.54-2.71-3.91-6.34-7.01-10.87-9.26-4.58-2.25-9.92-3.7-16.07-4.37-19.96-2.32-61.49,1.54-76.18,8.71h0Zm93.11,98.42c-12.44,1.1-24.95,2.22-37.54,3.41l-2.37-24.99c9.82-.61,22.7-1.3,35.54-2.44,2.3,3.66,3.71,8.25,4.23,13.75.38,3.97.43,7.3.17,10l-.02.28Z"/>
      <path class="cls-3" d="m527.15,583.49l-61.6-27.61c-16.49,32.52,15.78,84.04,47.68,102.44l-.86-18.22c-1.91-25.75,8.4-40.27,14.77-56.61h0Zm-56.98-10.38c9.02,6.89,8.68,8.33,10.04,14.96,1.18,5.69-2.68,5.84,5.31,29.05-12.81-13.62-16.52-22.16-15.35-44.01Z"/>
      <path class="cls-3" d="m534.7,517.02c-13.44-10.8-23.43-8.73-37.11-.29-10.28,6.35-20.53,16.62-27.15,32.1l60.94,26.77c6.56-14.39,7.77-18.42,4.73-30.95-4.02-16.58-1.34-11.5-1.42-27.63h0Zm-21.12-.06l-25.21,29.12c-2.68,4.17-6.22,1.49-7.94-.32.03-3.07,2.51-6.05,9.59-13.68,6.31-7,14.43-14.22,23.57-15.12Z"/>
      <path class="cls-2" d="m403.97,457.09c-14.01.13-31.75-10.77-24.39,8.14,4.1,10.52,10.28,22.17,14.78,33.02,4.23,10.2,22.97,60.23,31.39,62.12,6.03-7.77-3.69-54.49-5.53-67.01,10.04-.08,12.25,2.72,18.78,1.58,3.72-.65,1.95-.31,3.84-1.67,1.8-2.68-31.16-107.56-39.76-112.5-6.32,5.63-2.88,20.37-1.79,36.26.91,13.2,1.46,26.91,2.69,40.07Z"/>
      <path class="cls-3" d="m589.84,305.33c-8.2-7.82-63.89,29.32-54.78,38.76,8.2,7.82,63.89-29.32,54.78-38.76Z"/>
      <path class="cls-3" d="m500.57,236.54c-10.99-3.02-42,55.84-29.42,59.85,10.99,3.02,42-55.84,29.42-59.85Z"/>
      <path class="cls-3" d="m388.88,218.09c-11.12,2.52-9.94,68.85,3.05,66.46,11.12-2.52,9.94-68.85-3.05-66.46Z"/>
      <path class="cls-3" d="m281.78,254.43c-8.56,7.45,24.52,65.2,34.79,56.98,8.56-7.45-24.52-65.2-34.79-56.98Z"/>
      <path class="cls-3" d="m205.2,336.79c-3.92,10.57,53.05,45.77,58.1,33.71,3.92-10.57-53.05-45.77-58.1-33.71Z"/>
      <path class="cls-2" d="m360.54,640.18c-7.69-85.11-79.99-119.35-85.35-188.98-5.47-71.17,48.9-134.42,121.78-139.56,71.17-5.01,138.09,46.54,139.74,120.42-1.07,17.32-7.01,54.74-15.08,70.89,4.96.89,9.77,2.01,15.97,8.92,14.5-29.7,23.26-63.87,19.48-93.53-10.21-80.2-82.51-135.46-166.81-126.66-88.48,9.24-140.06,82.95-136.17,156.65,3.38,63.82,55.18,104.73,75.29,151.36,9.06,21,8.08,47.38,14.9,61.84,10.72,2.87,28.59,1.25,38.59-3.49,5.67-22.17-8.48-14.31-22.34-17.87Z"/>
      <path class="cls-4" d="m366.64,615.85l-.13-1.87c-.07-.95-.15-1.9-.25-2.84l3.65-.39c.04.36.08.73.11,1.09l2.54-.25.37,3.65-6.28.6Zm9.94-.97l-.38-3.65,7.31-.75.37,3.65-7.31.75Zm10.96-1.12l-.36-3.65c2.37-.23,4.82-.47,7.33-.7l.34,3.66c-2.5.23-4.94.46-7.3.7Zm61.53-.86c-1.89-.52-4.22-.93-6.93-1.22l.39-3.65c2.91.31,5.43.76,7.51,1.33l-.97,3.54Zm-50.58-.17l-.31-3.66c2.42-.21,4.88-.41,7.34-.6l.27,3.66c-2.45.18-4.89.38-7.3.59Zm10.96-.85l-.25-3.66c2.46-.16,4.93-.31,7.36-.43l.18,3.67c-2.41.12-4.86.26-7.3.43Zm29.11-.51c-2.27-.15-4.7-.23-7.24-.26l.04-3.67c2.61.03,5.1.11,7.44.27l-.24,3.66Zm-18.16-.08l-.14-3.67c2.52-.1,5-.16,7.4-.18l.03,3.67c-2.37.02-4.81.08-7.29.17Zm-54.59-3.72c-.35-2.38-.8-4.74-1.33-7.06l3.58-.82c.56,2.42,1.02,4.87,1.39,7.35l-3.63.54Zm-2.21-10.55c-.63-2.32-1.34-4.62-2.14-6.88l3.47-1.21c.82,2.35,1.56,4.73,2.21,7.13l-3.54.96Zm-3.38-10.27c-.87-2.24-1.81-4.46-2.81-6.65l3.34-1.53c1.03,2.26,2,4.54,2.9,6.85l-3.42,1.32Zm-4.37-9.91c-1.06-2.16-2.19-4.3-3.36-6.42l3.21-1.78c1.2,2.17,2.35,4.36,3.44,6.57l-3.29,1.62Zm-5.16-9.56c-1.22-2.09-2.49-4.15-3.79-6.2l3.09-1.97c1.33,2.09,2.62,4.19,3.87,6.32l-3.17,1.85Zm-5.77-9.25c-1.34-2.02-2.72-4.03-4.12-6.02l3-2.11c1.42,2.02,2.81,4.05,4.17,6.1l-3.06,2.03Zm-6.23-8.99c-1.43-1.98-2.88-3.95-4.34-5.89l2.94-2.2c1.48,1.96,2.94,3.95,4.38,5.94l-2.97,2.15Zm-6.56-8.82c-1.49-1.95-2.98-3.88-4.48-5.8l2.9-2.26c1.5,1.93,3,3.87,4.5,5.83l-2.92,2.23Zm-6.74-8.69l-4.54-5.78,2.89-2.27,4.54,5.78-2.89,2.27Zm-6.81-8.67c-1.53-1.95-3.03-3.89-4.51-5.82l2.92-2.23c1.47,1.92,2.97,3.85,4.49,5.79l-2.89,2.26Zm-6.74-8.76c-1.5-1.99-2.96-3.97-4.38-5.95l2.98-2.14c1.41,1.95,2.85,3.91,4.34,5.88l-2.94,2.21Zm-6.51-8.97c-1.44-2.06-2.81-4.12-4.12-6.17l3.09-1.97c1.28,2.01,2.63,4.03,4.04,6.04l-3.01,2.1Zm206.65-6.66l-3.46-1.24c.44-1.23.86-2.45,1.28-3.67l3.48,1.18c-.42,1.24-.85,2.48-1.3,3.73Zm-212.74-2.67c-1.31-2.17-2.54-4.33-3.67-6.49l3.26-1.7c1.09,2.1,2.28,4.19,3.55,6.29l-3.14,1.9Zm215.19-4.58l-3.49-1.12c.75-2.35,1.46-4.67,2.1-6.97l3.53,1c-.66,2.34-1.38,4.7-2.14,7.09Zm-220.53-5.25c-1.12-2.34-2.1-4.66-2.93-6.91l3.45-1.27c.78,2.14,1.73,4.36,2.79,6.6l-3.31,1.58Zm223.66-5.41l-3.55-.94c.63-2.38,1.21-4.74,1.73-7.06l3.58.81c-.54,2.37-1.12,4.77-1.77,7.19Zm-227.79-5.07c-.76-2.48-1.35-4.95-1.76-7.35l3.62-.61c.38,2.25.94,4.56,1.65,6.89l-3.51,1.08Zm230.33-5.75l-3.6-.74c.5-2.41.93-4.8,1.32-7.15l3.62.59c-.39,2.4-.84,4.83-1.34,7.29Zm-232.53-5.44c-.15-2.5-.26-4.97-.31-7.41l3.67-.08c.05,2.39.16,4.81.3,7.27l-3.66.22Zm234.43-5.52l-3.63-.51c.34-2.43.62-4.84.85-7.21l3.65.34c-.23,2.42-.51,4.88-.86,7.38Zm-231.11-5.6h-3.67v-.47c0-2.35.05-4.66.13-6.93l3.67.14c-.08,2.23-.13,4.5-.13,6.79v.47Zm232.29-5.48l-3.66-.25c.17-2.45.28-4.87.33-7.24l3.67.07c-.05,2.44-.16,4.91-.33,7.42Zm-231.97-5.41l-3.66-.22c.15-2.51.36-4.97.62-7.39l3.65.39c-.25,2.37-.45,4.78-.61,7.23Zm228.66-5.71c-.02-2.45-.1-4.86-.25-7.23l3.66-.23c.15,2.44.24,4.91.26,7.43l-3.67.02Zm-227.63-5.11l-3.64-.48c.33-2.49.71-4.94,1.15-7.34l3.61.66c-.43,2.34-.8,4.73-1.12,7.15Zm227.1-5.73c-.22-2.44-.51-4.82-.87-7.17l3.63-.55c.37,2.42.67,4.88.9,7.39l-3.66.33Zm-225.29-4.99l-3.6-.75c.51-2.46,1.09-4.87,1.72-7.24l3.55.95c-.61,2.3-1.17,4.65-1.67,7.04Zm223.82-5.74c-.44-2.4-.96-4.75-1.54-7.05l3.56-.9c.6,2.38,1.13,4.8,1.59,7.28l-3.61.66Zm-221.17-4.78l-3.52-1.04c.71-2.41,1.49-4.77,2.32-7.07l3.45,1.24c-.81,2.24-1.56,4.53-2.25,6.87Zm218.69-5.75c-.68-2.34-1.42-4.62-2.24-6.85l3.45-1.26c.84,2.31,1.62,4.67,2.32,7.09l-3.53,1.02Zm-215.17-4.5l-3.41-1.35c.92-2.34,1.9-4.62,2.94-6.84l3.33,1.55c-1.01,2.16-1.96,4.37-2.86,6.63Zm211.63-5.71c-.91-2.25-1.89-4.44-2.94-6.57l3.29-1.62c1.09,2.21,2.11,4.48,3.05,6.82l-3.4,1.38Zm-207.2-4.17l-3.28-1.66c1.14-2.24,2.33-4.42,3.58-6.54l3.16,1.86c-1.21,2.05-2.37,4.16-3.46,6.33Zm202.6-5.61c-1.14-2.13-2.36-4.2-3.64-6.21l3.09-1.97c1.33,2.08,2.59,4.23,3.78,6.45l-3.23,1.74Zm-197.25-3.8l-3.1-1.97c1.35-2.12,2.75-4.17,4.21-6.16l2.96,2.17c-1.41,1.92-2.77,3.91-4.07,5.95Zm191.62-5.41c-1.37-1.99-2.81-3.91-4.31-5.77l2.86-2.3c1.55,1.93,3.04,3.92,4.47,5.98l-3.02,2.09Zm-185.37-3.42l-2.89-2.27c1.55-1.97,3.15-3.87,4.8-5.7l2.73,2.45c-1.6,1.78-3.15,3.62-4.64,5.52Zm178.75-5.11c-1.58-1.82-3.22-3.57-4.91-5.26l2.59-2.6c1.76,1.75,3.46,3.57,5.1,5.46l-2.77,2.4Zm-171.64-3.04l-2.64-2.55c1.74-1.8,3.53-3.53,5.36-5.19l2.46,2.72c-1.77,1.61-3.5,3.28-5.18,5.02Zm164.14-4.71c-1.76-1.64-3.58-3.21-5.45-4.71l2.3-2.86c1.94,1.56,3.82,3.18,5.65,4.88l-2.5,2.69Zm-156.24-2.68l-2.37-2.8c1.9-1.61,3.86-3.15,5.85-4.62l2.18,2.96c-1.93,1.42-3.82,2.91-5.66,4.47Zm147.94-4.24c-1.92-1.44-3.9-2.82-5.92-4.12l1.99-3.08c2.09,1.35,4.13,2.78,6.12,4.27l-2.2,2.94Zm-139.34-2.33l-2.08-3.03c2.06-1.41,4.15-2.75,6.29-4.02l1.88,3.16c-2.07,1.23-4.1,2.53-6.09,3.89Zm130.36-3.71c-2.06-1.24-4.16-2.41-6.3-3.51l1.68-3.27c2.22,1.14,4.39,2.35,6.52,3.63l-1.89,3.15Zm-121.13-1.99l-1.77-3.21c2.18-1.2,4.4-2.33,6.64-3.39l1.56,3.32c-2.17,1.02-4.32,2.12-6.43,3.28Zm111.58-3.13c-2.17-1.03-4.38-2-6.62-2.89l1.36-3.41c2.31.93,4.59,1.92,6.83,2.99l-1.58,3.31Zm-101.85-1.64l-1.46-3.37c2.28-.99,4.59-1.91,6.93-2.75l1.25,3.45c-2.26.82-4.5,1.71-6.71,2.67Zm91.85-2.55c-2.26-.83-4.55-1.59-6.86-2.28l1.05-3.52c2.39.71,4.75,1.49,7.08,2.35l-1.26,3.45Zm-81.72-1.3l-1.15-3.49c2.36-.78,4.75-1.48,7.15-2.11l.93,3.55c-2.33.61-4.64,1.29-6.93,2.05Zm71.37-1.96c-2.33-.62-4.68-1.17-7.04-1.66l.73-3.6c2.44.5,4.86,1.06,7.26,1.7l-.95,3.55Zm-60.92-.96l-.83-3.58c2.42-.56,4.85-1.05,7.3-1.47l.62,3.62c-2.38.41-4.74.88-7.09,1.43Zm50.32-1.36c-2.38-.41-4.76-.76-7.16-1.04l.42-3.65c2.47.29,4.93.64,7.37,1.07l-.63,3.62Zm-39.65-.62l-.52-3.63c2.46-.35,4.93-.63,7.4-.83l.31,3.66c-2.4.2-4.8.47-7.19.81Zm28.88-.78c-2.4-.21-4.81-.35-7.23-.42l.11-3.67c2.48.07,4.96.22,7.43.43l-.32,3.66Zm-18.08-.28l-.2-3.67c2.41-.13,4.83-.2,7.24-.2l.2,3.67c-2.54,0-4.89.06-7.24.19Z"/>
    </g>
  </g>
  <g>
    <g>
      <path class="cls-4" d="m974.41,520.47c.01,7.48-1.17,14.16-3.55,20.04-2.38,5.89-6.05,10.88-11.01,15-4.96,4.11-11.23,7.25-18.82,9.4-7.59,2.16-16.66,3.25-27.2,3.26-3.43,0-7.42-.05-11.94-.16-4.54-.12-9.22-.26-14.06-.44-4.84-.18-9.56-.44-14.15-.8-4.59-.36-8.61-.72-12.04-1.08l-.28-167.44c6.5-.75,13.92-1.31,22.27-1.69,8.35-.38,16.2-.58,23.57-.59,8.96-.02,17.12.74,24.49,2.26,7.37,1.52,13.66,3.9,18.89,7.14,5.22,3.24,9.24,7.4,12.08,12.48,2.83,5.08,4.25,11.17,4.26,18.28.02,5.76-.78,10.82-2.38,15.17-1.6,4.35-3.71,8.16-6.35,11.41-2.64,3.25-5.75,5.89-9.32,7.92-3.57,2.03-7.26,3.54-11.08,4.52v.55c6.5,1.34,12.04,3.41,16.64,6.22,4.6,2.81,8.37,6.15,11.31,10,2.95,3.85,5.12,8.2,6.54,13.04,1.42,4.84,2.13,10.01,2.14,15.52Zm-40.94-80.43c-.02-10.05-2.75-17.06-8.21-21.03-5.46-3.97-13.15-5.95-23.08-5.93-1.47,0-2.91.04-4.32.1-1.41.06-2.67.16-3.77.28l.1,54.59,10.85-.02c3.8,0,7.59-.38,11.39-1.12,3.8-.74,6.74-1.66,8.82-2.77.98-.61,1.96-1.44,2.94-2.49.98-1.04,1.87-2.48,2.66-4.32.79-1.84,1.43-4.17,1.91-6.99.49-2.82.73-6.25.72-10.3Zm7.49,78.38c-.02-10.99-3.13-19.3-9.32-24.91-6.2-5.61-15.24-8.41-27.13-8.39l-10.29.02.11,64.88c.98.12,1.81.21,2.48.27.68.06,1.38.13,2.12.18.73.06,1.65.09,2.75.09,1.1,0,2.7,0,4.78,0,1.95,0,4.13-.1,6.52-.28,2.39-.19,4.72-.43,6.99-.75,2.27-.31,4.35-.71,6.24-1.2,1.9-.49,3.4-1.04,4.5-1.66,1.1-.73,2.26-1.71,3.49-2.94,1.21-1.22,2.35-2.91,3.39-5.05,1.03-2.14,1.85-4.83,2.47-8.07.61-3.24.9-7.31.9-12.19Z"/>
      <path class="cls-4" d="m1066.06,478.41c-2.46-.85-5.09-1.55-7.91-2.1-2.82-.54-5.51-.82-8.08-.82-1.84,0-3.49.16-4.96.47-1.47.31-2.85.83-4.14,1.57-1.29.74-2.57,1.72-3.85,2.95-1.28,1.23-2.72,2.7-4.31,4.42l.14,81.24-32.16.06-.2-113.22,28.85-.05,2.79,18.01h.18c.85-1.35,1.9-2.91,3.12-4.69,1.22-1.78,2.54-3.56,3.95-5.34,1.41-1.78,2.87-3.4,4.4-4.88,1.53-1.47,3.09-2.52,4.68-3.13,2.82-.98,6-1.63,9.56-1.94,3.55-.31,7.42-.47,11.58-.48l-3.62,27.94Z"/>
      <path class="cls-4" d="m1121.34,452.77l.13,75.91c.01,6.74,1.1,11.73,3.28,14.97,2.17,3.25,5.85,4.86,11.05,4.86,1.85,0,3.89-.28,6.11-.84,2.22-.55,4.51-1.29,6.86-2.22,2.35-.92,4.6-1.96,6.76-3.13,2.17-1.17,4.17-2.42,6.03-3.78l-.15-85.83,32.16-.05.2,113.22-28.85.05-2.96-13.23h-.37c-2.2,1.48-4.87,3.11-7.99,4.89-3.12,1.78-6.49,3.5-10.1,5.16-3.61,1.66-7.41,3.04-11.39,4.15-3.99,1.11-7.87,1.67-11.67,1.67-4.29,0-8.3-.69-12.04-2.09-3.74-1.4-7.02-3.48-9.84-6.23-2.82-2.75-5.07-6.24-6.73-10.46-1.66-4.23-2.5-9.09-2.5-14.61l-.14-82.34,32.16-.06Z"/>
      <path class="cls-4" d="m1306.36,528.37c.01,6.37-1.3,11.61-3.92,15.72-2.63,4.11-5.72,7.7-9.27,10.77-1.84,1.6-3.79,3.19-5.87,4.79-2.09,1.6-4.41,3.01-6.98,4.24-2.57,1.23-5.51,2.22-8.82,2.95-3.31.74-7.16,1.12-11.57,1.12-7.97.01-15.23-.8-21.78-2.44-6.57-1.65-12.73-4.3-18.49-7.97l7.86-21.15c2.45,1.47,5.06,3.12,7.82,4.95,2.76,1.83,5.7,3.51,8.83,5.04,3.13,1.53,6.41,2.81,9.84,3.84,3.43,1.04,6.92,1.55,10.48,1.55,2.45,0,4.69-.19,6.71-.56,2.02-.37,3.7-1.04,5.05-2.03,1.1-.86,1.93-2.42,2.47-4.69.55-2.27.82-4.99.81-8.18,0-3.67-1.39-6.58-4.15-8.72-2.76-2.14-6.23-4-10.39-5.59-4.16-1.58-8.64-3.17-13.43-4.76-4.78-1.58-9.26-3.69-13.43-6.31-4.17-2.63-7.64-5.99-10.4-10.09-2.77-4.1-4.16-9.52-4.16-16.26-.01-4.41,1.33-8.79,4.02-13.15,2.69-4.35,5.62-7.94,8.8-10.77,3.92-3.56,8.26-6.2,13.04-7.93,4.78-1.72,10.29-2.59,16.54-2.6,5.27-.01,10.84.29,16.72.89,5.89.61,11.4,1.27,16.55,1.99l-3.45,22.43c-2.58-.85-5.37-1.71-8.37-2.56-3.01-.85-5.98-1.64-8.92-2.38-2.94-.73-5.79-1.3-8.55-1.73-2.76-.42-5.24-.63-7.44-.63-2.82,0-4.96.17-6.44.47-1.47.31-2.63.71-3.48,1.2-.74.49-1.32,1.53-1.74,3.13-.44,1.59-.64,3.25-.64,4.96,0,3.43,1.39,6.13,4.15,8.08,2.76,1.96,6.23,3.7,10.39,5.22,4.17,1.53,8.67,3.11,13.52,4.76,4.84,1.65,9.35,3.75,13.52,6.32,4.17,2.57,7.64,5.9,10.4,10,2.76,4.1,4.15,9.46,4.16,16.07Z"/>
      <path class="cls-4" d="m1364.34,465.59c2.2-1.47,4.87-3.1,7.98-4.88,3.13-1.78,6.52-3.47,10.2-5.07,3.67-1.6,7.47-2.95,11.38-4.06,3.92-1.11,7.78-1.67,11.58-1.67,4.29,0,8.3.69,12.04,2.09,3.74,1.4,7.02,3.48,9.85,6.23,2.82,2.75,5.06,6.21,6.72,10.37,1.66,4.16,2.5,9.07,2.51,14.7l.14,82.16-32.17.05-.13-75.91c-.01-6.74-1.09-11.7-3.24-14.88-2.15-3.18-5.79-4.77-10.94-4.76-1.84,0-3.89.26-6.15.75-2.27.49-4.54,1.2-6.8,2.13-2.27.92-4.5,1.97-6.7,3.13-2.2,1.17-4.22,2.43-6.06,3.78l.15,85.83-32.16.06-.31-185.64,32.15-6.49.12,70.4c0,1.96.01,4.2.02,6.71,0,2.51-.05,4.87-.17,7.08-.12,2.57-.24,5.21-.35,7.9h.37Z"/>
      <path class="cls-4" d="m1586.54,565.2l-32.9.06-.11-65.07-52.75-104.31,37.49-.06,39.66,83.01,41.03-83.15,19.85-.03-52.39,104.48.11,65.07Z"/>
      <path class="cls-4" d="m1704.36,567.21c-18.38.03-32.45-4.94-42.21-14.91-9.75-9.97-14.65-24.57-14.68-43.81-.02-9.07,1.16-17.25,3.54-24.54,2.38-7.29,5.95-13.49,10.72-18.58,4.77-5.09,10.71-9.02,17.81-11.79,7.1-2.77,15.31-4.16,24.63-4.18,18.75-.03,32.9,5.03,42.48,15.18,9.58,10.16,14.38,24.61,14.41,43.35.02,9.19-1.16,17.44-3.54,24.73-2.38,7.3-5.95,13.49-10.72,18.58-4.77,5.09-10.71,9.02-17.81,11.79-7.1,2.77-15.31,4.16-24.62,4.18Zm-23.45-58.96c.02,14.83,1.82,25.73,5.38,32.71,3.57,6.98,9.52,10.46,17.85,10.44,3.18,0,6.19-.29,9.01-.84,2.81-.55,5.14-1.39,6.98-2.49,1.22-.61,2.29-2.12,3.2-4.51.92-2.39,1.71-5.36,2.38-8.92.67-3.55,1.15-7.6,1.45-12.13.29-4.53.44-9.25.43-14.15-.03-14.46-1.85-25.27-5.48-32.43-3.62-7.16-9.49-10.74-17.57-10.72-3.06,0-6.07.32-9,.93-2.94.62-5.51,1.6-7.72,2.96-1.22.74-2.3,2.27-3.21,4.6-.91,2.33-1.64,5.27-2.19,8.83-.54,3.56-.94,7.54-1.17,11.95-.24,4.41-.35,9.01-.34,13.78Z"/>
      <path class="cls-4" d="m1820.68,451.58l.13,75.91c.01,6.74,1.1,11.74,3.28,14.97,2.17,3.25,5.85,4.86,11.05,4.85,1.86,0,3.89-.28,6.12-.84,2.22-.56,4.51-1.29,6.86-2.22,2.35-.92,4.6-1.97,6.77-3.14,2.17-1.16,4.17-2.42,6.03-3.78l-.15-85.83,32.16-.06.2,113.22-28.85.05-2.96-13.23h-.37c-2.2,1.47-4.87,3.1-7.99,4.89-3.12,1.78-6.49,3.5-10.1,5.16-3.62,1.66-7.41,3.05-11.39,4.15-3.99,1.11-7.87,1.67-11.67,1.67-4.29,0-8.3-.69-12.04-2.09-3.74-1.4-7.02-3.48-9.84-6.23-2.83-2.75-5.07-6.24-6.73-10.46-1.66-4.23-2.5-9.09-2.5-14.61l-.14-82.34,32.16-.05Z"/>
      <path class="cls-4" d="m1994.6,476.84c-2.46-.85-5.09-1.55-7.91-2.1-2.82-.55-5.51-.82-8.08-.81-1.84,0-3.49.16-4.96.47s-2.85.83-4.14,1.57c-1.29.74-2.57,1.72-3.85,2.94-1.28,1.23-2.72,2.7-4.31,4.42l.14,81.24-32.16.05-.2-113.22,28.85-.05,2.79,18.01h.18c.85-1.35,1.9-2.91,3.12-4.69,1.22-1.78,2.54-3.56,3.95-5.34,1.41-1.78,2.87-3.4,4.4-4.88,1.52-1.47,3.09-2.52,4.68-3.13,2.82-.98,6-1.63,9.56-1.95,3.55-.31,7.42-.47,11.58-.48l-3.62,27.94Z"/>
      <path class="cls-4" d="m2100.98,564.33l-32.71.06-.29-169.46,32.71-.06.29,169.46Z"/>
      <path class="cls-4" d="m2206.84,450.74c0-1.72-.07-3.37-.19-4.96-.12-1.35-.19-2.73-.19-4.14,0-1.41,0-2.6,0-3.59l-.1-59.55,31.97-6.67.33,192.25-21.87.04-9.02-10.64h-.55c-4.4,3.2-9.15,6.14-14.23,8.85-5.08,2.7-10.92,4.06-17.54,4.07-5.88,0-11.56-.99-17.01-3.01-5.46-2.01-10.27-5.22-14.44-9.62-4.18-4.41-7.53-10.16-10.05-17.26-2.53-7.1-3.8-15.74-3.81-25.91-.02-9.68,1.19-18.35,3.63-26.01,2.45-7.66,6-14.13,10.66-19.41,4.66-5.28,10.29-9.33,16.92-12.16,6.63-2.83,14.12-4.25,22.47-4.26,3.44,0,7.15.17,11.15.53,3.99.36,7.95.85,11.89,1.45Zm-43.28,57.97c.02,12.99,2.18,22.51,6.48,28.57,4.3,6.06,10,9.08,17.11,9.07,3.55,0,7.01-.5,10.38-1.49,3.37-.99,6.33-2.15,8.91-3.51l-.13-73.89c-4.91-1.09-9.81-1.64-14.71-1.63-4.53,0-8.52.38-11.95,1.12-3.43.74-6.12,1.97-8.08,3.69-1.84,1.84-3.63,5.95-5.4,12.32-1.77,6.38-2.64,14.96-2.62,25.74Z"/>
      <path class="cls-4" d="m2322.45,448.34c5.39-.01,10.63.75,15.72,2.27,5.09,1.52,9.78,4.09,14.07,7.69,4.29,3.61,8.01,8.44,11.15,14.5,3.14,6.06,5.5,13.63,7.11,22.69v1.47c-.98,1.35-2.29,2.58-3.94,3.68-1.65,1.11-3.83,2.06-6.52,2.86-2.69.8-6,1.54-9.92,2.22-3.92.68-8.63,1.21-14.15,1.58l-35.65,2.82v4.78c.02,8.82,2.36,16.11,7.03,21.86,4.67,5.75,11.66,8.62,20.97,8.6,3.8,0,7.78-.41,11.95-1.21,4.16-.8,8.11-1.76,11.85-2.87,3.73-1.11,7.16-2.25,10.28-3.42,3.12-1.17,5.48-2.18,7.07-3.05l2.77,8.27c-3.43,2.58-7.29,5.25-11.56,8.01-4.29,2.77-8.88,5.26-13.78,7.47-4.89,2.22-10.07,4.03-15.52,5.45-5.46,1.42-11.05,2.13-16.81,2.14-6.74.01-13.03-.99-18.85-3-5.82-2.01-10.85-5.22-15.08-9.62-4.24-4.41-7.59-10.15-10.05-17.26-2.47-7.1-3.71-15.74-3.72-25.91-.02-11.4,1.37-21.05,4.17-28.95,2.81-7.91,6.71-14.29,11.73-19.13,5.02-4.85,10.93-8.38,17.72-10.6,6.79-2.22,14.12-3.33,21.96-3.34Zm-15.23,19.14c-.85.74-1.68,2.12-2.47,4.14-.79,2.02-1.5,4.41-2.1,7.17-.61,2.76-1.09,5.64-1.45,8.64-.36,3-.54,5.91-.54,8.73l35.47-1.71c-.37-3.31-.93-6.73-1.67-10.29-.74-3.55-1.82-6.8-3.23-9.74-1.42-2.94-3.17-5.38-5.26-7.34-2.08-1.95-4.6-2.93-7.54-2.93-2.08,0-4.04.25-5.88.75-1.84.49-3.61,1.35-5.33,2.58Z"/>
      <path class="cls-4" d="m2492.81,546.93c2.7,0,6.43-.68,11.21-2.04v7.72c-1.7,1.6-3.72,3.16-6.04,4.69-2.33,1.54-4.81,2.89-7.43,4.06-2.64,1.17-5.36,2.09-8.18,2.77-2.82.68-5.58,1.02-8.27,1.03-2.94,0-5.46-.42-7.53-1.27-2.09-.85-3.9-1.92-5.43-3.21-1.54-1.28-2.83-2.78-3.87-4.5-1.05-1.71-1.93-3.37-2.67-4.96-2.69,1.84-5.35,3.66-7.98,5.43-2.63,1.78-5.39,3.35-8.26,4.7-2.88,1.36-5.91,2.46-9.09,3.33-3.19.86-6.74,1.3-10.66,1.3-8.82.02-15.78-2.73-20.87-8.23-5.1-5.51-7.65-13.83-7.67-24.98-.01-5.88.74-11.03,2.26-15.44,1.53-4.41,3.96-8.06,7.32-10.95,3.36-2.89,7.69-5.1,13-6.64,5.31-1.54,11.81-2.44,19.51-2.7l19.43-.58-.03-16.46c0-4.44-1.21-7.7-3.6-9.8-2.39-2.09-6.47-3.13-12.23-3.12-4.04,0-8.73.51-14.06,1.49-5.33.99-10.93,2.66-16.81,4.99l-4.43-11.7c3.92-1.71,7.99-3.38,12.22-5.03,4.22-1.64,8.51-3.11,12.86-4.39,4.35-1.28,8.75-2.32,13.23-3.12,4.47-.79,8.92-1.2,13.32-1.21,5.05,0,9.55.44,13.5,1.36,3.94.91,7.24,2.47,9.9,4.67,2.65,2.2,4.69,5.14,6.11,8.81,1.42,3.67,2.14,8.21,2.15,13.6l.09,52.2c.02,12.13,3.04,18.19,9.04,18.18Zm-39.89-5.26c-.12-.49-.25-1.75-.37-3.77-.13-2.02-.25-4.6-.38-7.72-.13-3.12-.23-6.67-.29-10.66-.07-3.98-.11-8.18-.12-12.59-7.86.01-13.78.48-17.78,1.41-3.99.93-6.46,2.07-7.43,3.41-.48.49-.88,1.41-1.18,2.76-.3,1.35-.54,2.85-.71,4.5-.19,1.65-.3,3.37-.36,5.15-.06,1.78-.08,3.4-.08,4.87,0,5.14.71,9.31,2.11,12.5,1.4,3.18,3.73,4.77,6.99,4.77,3.5,0,6.86-.44,10.06-1.3,3.21-.86,6.38-1.97,9.53-3.32Z"/>
      <path class="cls-4" d="m2598.64,526.17c.01,6.37-1.3,11.61-3.92,15.72-2.63,4.11-5.72,7.7-9.27,10.77-1.83,1.59-3.79,3.19-5.87,4.79-2.08,1.6-4.41,3.01-6.98,4.24-2.57,1.23-5.51,2.22-8.82,2.96-3.31.74-7.16,1.12-11.57,1.12-7.97.02-15.23-.8-21.78-2.44-6.56-1.64-12.73-4.3-18.49-7.97l7.86-21.15c2.45,1.47,5.06,3.12,7.82,4.95,2.76,1.83,5.7,3.51,8.83,5.04,3.13,1.53,6.41,2.81,9.84,3.84,3.43,1.04,6.92,1.55,10.48,1.55,2.45,0,4.68-.19,6.71-.56,2.02-.37,3.7-1.05,5.05-2.03,1.1-.86,1.93-2.42,2.47-4.69.55-2.27.82-4.99.81-8.18,0-3.67-1.39-6.58-4.15-8.72-2.76-2.14-6.23-4-10.39-5.59-4.16-1.58-8.64-3.17-13.43-4.76-4.78-1.58-9.26-3.69-13.42-6.32-4.17-2.63-7.64-5.99-10.4-10.09-2.77-4.1-4.15-9.52-4.16-16.26,0-4.41,1.33-8.79,4.02-13.15,2.69-4.35,5.62-7.94,8.8-10.77,3.92-3.56,8.26-6.2,13.04-7.92,4.78-1.72,10.29-2.59,16.54-2.6,5.27-.01,10.84.29,16.72.89,5.89.6,11.4,1.27,16.55,1.99l-3.45,22.43c-2.58-.85-5.37-1.71-8.37-2.56-3.01-.85-5.98-1.64-8.92-2.38-2.94-.73-5.79-1.31-8.55-1.73-2.76-.42-5.24-.63-7.44-.63-2.82,0-4.96.16-6.44.47-1.47.31-2.63.71-3.48,1.2-.74.49-1.32,1.54-1.74,3.13-.43,1.59-.64,3.25-.64,4.96,0,3.43,1.39,6.12,4.15,8.08,2.76,1.96,6.23,3.7,10.39,5.22,4.17,1.53,8.67,3.11,13.52,4.75,4.84,1.65,9.35,3.75,13.52,6.32,4.17,2.57,7.64,5.9,10.4,10,2.76,4.1,4.15,9.46,4.16,16.07Z"/>
    </g>
    <g>
      <path class="cls-1" d="m909.88,669.31c-.31-1.06-.62-2.07-.93-3.04-.31-.96-.56-1.79-.75-2.47-.25-.81-.47-1.58-.65-2.33-.13.75-.31,1.56-.56,2.43-.19.75-.43,1.64-.75,2.66-.31,1.03-.62,2.1-.93,3.22l-14.1,44.53h-16.43l-24-86.07h17.55l13.82,51.25c.56,2.12,1.12,4.39,1.68,6.82.56,2.43,1.09,4.7,1.59,6.82.56,2.49,1.12,4.95,1.68,7.37.81-2.68,1.62-5.29,2.43-7.84.68-2.18,1.41-4.48,2.19-6.91.78-2.43,1.45-4.54,2.01-6.35l12.79-40.33h9.62l13.26,40.33c.56,1.81,1.2,3.91,1.92,6.3.72,2.4,1.42,4.68,2.1,6.86.75,2.55,1.5,5.2,2.24,7.94.68-2.68,1.37-5.29,2.05-7.84.56-2.18,1.15-4.48,1.77-6.91.62-2.43,1.18-4.54,1.68-6.35l13.26-51.16h9.99l-23.43,86.07h-16.34l-14.75-45Z"/>
      <path class="cls-1" d="m998.28,655.59c2.74,0,5.4.39,7.98,1.17,2.58.78,4.96,2.09,7.14,3.92,2.18,1.84,4.06,4.29,5.65,7.37,1.59,3.08,2.78,6.93,3.59,11.53v.75c-.5.69-1.17,1.31-2.01,1.87-.84.56-1.95,1.05-3.32,1.45-1.37.41-3.05.78-5.04,1.12-1.99.34-4.39.6-7.19.79l-18.11,1.4v2.43c0,4.48,1.18,8.19,3.55,11.11,2.36,2.93,5.91,4.39,10.64,4.39,1.93,0,3.95-.2,6.07-.61,2.11-.4,4.12-.89,6.02-1.45,1.9-.56,3.64-1.13,5.23-1.73,1.59-.59,2.79-1.1,3.6-1.54l1.4,4.2c-1.74,1.31-3.7,2.66-5.88,4.06-2.18,1.4-4.51,2.66-7,3.78-2.49,1.12-5.12,2.04-7.89,2.75-2.77.71-5.62,1.07-8.54,1.07-3.43,0-6.62-.51-9.57-1.54-2.96-1.03-5.51-2.66-7.65-4.9-2.15-2.24-3.84-5.17-5.09-8.77-1.25-3.61-1.87-8-1.87-13.16,0-5.79.71-10.69,2.15-14.7,1.43-4.02,3.42-7.25,5.98-9.71,2.55-2.46,5.55-4.25,9.01-5.37,3.45-1.12,7.17-1.68,11.16-1.68Zm-7.75,9.71c-.44.37-.86,1.07-1.26,2.1-.41,1.03-.76,2.24-1.07,3.64-.31,1.4-.56,2.86-.74,4.39-.19,1.52-.28,3-.28,4.43l18.02-.84c-.18-1.68-.47-3.42-.84-5.23-.37-1.81-.92-3.46-1.63-4.95-.71-1.5-1.6-2.74-2.66-3.74-1.06-.99-2.33-1.49-3.83-1.49-1.06,0-2.05.13-2.99.37-.94.25-1.84.68-2.71,1.31Z"/>
      <path class="cls-1" d="m1037.03,620.02l16.34-3.36v39.02c0,1.12-.03,2.12-.09,2.99-.06,1.06-.09,2.09-.09,3.08,2.24-1.68,4.7-3.13,7.37-4.34,2.68-1.21,5.66-1.82,8.96-1.82,2.92,0,5.76.51,8.5,1.54,2.74,1.03,5.15,2.66,7.24,4.9,2.08,2.24,3.75,5.15,4.99,8.73,1.25,3.58,1.87,7.95,1.87,13.12s-.7,9.42-2.1,13.3c-1.4,3.89-3.39,7.19-5.97,9.89-2.58,2.71-5.73,4.78-9.43,6.21-3.7,1.43-7.89,2.15-12.56,2.15-3.67,0-7.7-.23-12.09-.7-4.39-.47-8.7-1.32-12.93-2.57v-92.14Zm38.09,64.75c0-6.52-1.05-11.32-3.14-14.39-2.09-3.07-4.92-4.61-8.49-4.61-1.69,0-3.44.18-5.25.56-1.81.37-3.44.9-4.88,1.59v37.72c1.06.31,2.28.53,3.66.65,1.37.12,2.69.18,3.94.18,2.44,0,4.52-.18,6.23-.56,1.72-.37,3.02-.99,3.89-1.86.94-.93,1.84-3.06,2.72-6.38.88-3.32,1.31-7.62,1.31-12.9Z"/>
      <path class="cls-1" d="m1131.41,689.66h-30.15l.75-11.39h30.15l-.75,11.39Z"/>
      <path class="cls-1" d="m1145.98,664.73l-6.16-2.05v-3.46l17.71-12.51h4.51l.19,10.08h17.46l-.75,6.35c-1.3.25-2.91.47-4.81.65-1.9.19-3.72.34-5.46.47-2.05.19-4.17.37-6.35.56v32.3c0,2.05.37,3.78,1.12,5.18.75,1.4,2.3,2.1,4.67,2.1.62,0,1.46-.03,2.52-.09,1.06-.06,2.16-.16,3.32-.28,1.15-.13,2.27-.26,3.36-.42,1.09-.16,2.01-.29,2.75-.42v4.76c-1.37.87-2.96,1.76-4.76,2.66-1.81.9-3.72,1.71-5.74,2.43-2.02.72-4.07,1.29-6.12,1.73-2.06.43-4.03.65-5.9.65-1.44,0-2.85-.14-4.22-.42-1.38-.28-2.61-.82-3.71-1.63-1.09-.81-1.97-1.94-2.63-3.41-.66-1.46-.99-3.38-.99-5.74v-39.49Z"/>
      <path class="cls-1" d="m1216.09,715.43c-9.34,0-16.48-2.54-21.43-7.61-4.95-5.07-7.42-12.5-7.42-22.27,0-4.61.61-8.76,1.82-12.46,1.21-3.71,3.04-6.85,5.46-9.43,2.43-2.58,5.45-4.57,9.06-5.97,3.61-1.4,7.78-2.1,12.51-2.1,9.52,0,16.71,2.58,21.57,7.75,4.86,5.17,7.28,12.51,7.28,22.03,0,4.67-.61,8.86-1.82,12.56-1.21,3.7-3.03,6.85-5.46,9.43-2.43,2.58-5.45,4.57-9.06,5.97-3.61,1.4-7.78,2.1-12.51,2.1Zm-11.86-29.97c0,7.53.9,13.07,2.71,16.62,1.8,3.55,4.82,5.32,9.06,5.32,1.62,0,3.14-.14,4.57-.42,1.43-.28,2.61-.7,3.55-1.26.62-.31,1.17-1.08,1.63-2.29.47-1.21.87-2.72,1.21-4.53.34-1.81.59-3.86.74-6.16.16-2.3.24-4.7.24-7.19,0-7.34-.92-12.84-2.76-16.48-1.84-3.64-4.81-5.46-8.92-5.46-1.56,0-3.08.16-4.57.47-1.49.31-2.8.81-3.92,1.49-.62.37-1.17,1.15-1.64,2.33-.47,1.18-.84,2.68-1.12,4.48-.28,1.81-.48,3.83-.61,6.07-.12,2.24-.19,4.57-.19,7Z"/>
      <path class="cls-1" d="m1284.33,689.66h-30.15l.75-11.39h30.15l-.75,11.39Z"/>
      <path class="cls-1" d="m1318.22,674.44l2.24-.47c2.18-.5,4.23-1.14,6.16-1.92,1.93-.78,3.59-1.93,4.99-3.45,1.4-1.52,2.5-3.53,3.31-6.02.81-2.49,1.21-5.66,1.21-9.52,0-5.79-1.31-10-3.92-12.65-2.61-2.65-6.04-3.97-10.27-3.97-1.06,0-2.13.03-3.22.09-1.09.06-2.23.19-3.41.37v77.39h-16.62v-85.61c1.74-.12,3.64-.25,5.7-.37,2.06-.13,4.19-.23,6.4-.33,2.21-.09,4.42-.15,6.63-.19,2.21-.03,4.34-.05,6.39-.05,5.04,0,9.41.58,13.11,1.73,3.71,1.15,6.77,2.79,9.2,4.9,2.43,2.12,4.23,4.68,5.41,7.7,1.18,3.02,1.77,6.43,1.77,10.23,0,3.98-.65,7.72-1.96,11.2-1.31,3.48-3.32,6.53-6.02,9.15-2.71,2.61-6.16,4.67-10.36,6.16-4.2,1.49-9.2,2.24-14.98,2.24h-.75l-1.03-6.63Z"/>
      <path class="cls-1" d="m1399.91,669.78c-1.25-.43-2.58-.79-4.01-1.07-1.43-.28-2.8-.42-4.11-.42-.93,0-1.77.08-2.52.23-.75.16-1.45.42-2.1.8-.66.37-1.31.87-1.96,1.49-.65.62-1.38,1.37-2.19,2.24v41.26h-16.34v-57.51h14.66l1.4,9.15h.09c.43-.68.96-1.48,1.59-2.38.62-.9,1.29-1.8,2.01-2.71.72-.9,1.46-1.73,2.24-2.47.78-.75,1.57-1.28,2.38-1.59,1.43-.5,3.05-.82,4.85-.98,1.8-.15,3.76-.23,5.88-.23l-1.87,14.19Z"/>
      <path class="cls-1" d="m1419.98,624.22l10.36,10.74-10.36,10.83-10.27-10.83,10.27-10.74Zm8.5,90.09h-16.34v-57.51h16.34v57.51Z"/>
      <path class="cls-1" d="m1483.47,714.31v-38.56c0-3.42-.55-5.94-1.63-7.56-1.09-1.62-2.94-2.43-5.56-2.43-.93,0-1.98.12-3.13.37-1.15.25-2.3.61-3.45,1.07-1.15.47-2.29,1-3.41,1.59-1.12.59-2.14,1.23-3.08,1.92v43.6h-16.34v-57.51h14.56l1.5,6.72h.19c1.12-.75,2.47-1.57,4.06-2.47,1.58-.9,3.31-1.76,5.18-2.57,1.87-.81,3.79-1.49,5.79-2.05,2-.56,3.95-.84,5.88-.84,2.18,0,4.22.36,6.11,1.07,1.9.72,3.56,1.77,5,3.17,1.43,1.4,2.57,3.16,3.41,5.27.84,2.12,1.26,4.61,1.26,7.47v41.73h-16.33Z"/>
      <path class="cls-1" d="m1518.38,664.73l-6.16-2.05v-3.46l17.71-12.51h4.51l.19,10.08h17.46l-.75,6.35c-1.31.25-2.91.47-4.81.65-1.9.19-3.72.34-5.46.47-2.05.19-4.17.37-6.35.56v32.3c0,2.05.38,3.78,1.12,5.18.75,1.4,2.3,2.1,4.67,2.1.62,0,1.46-.03,2.52-.09,1.05-.06,2.16-.16,3.31-.28,1.15-.13,2.27-.26,3.36-.42,1.09-.16,2-.29,2.75-.42v4.76c-1.37.87-2.96,1.76-4.76,2.66-1.8.9-3.72,1.71-5.74,2.43-2.02.72-4.06,1.29-6.12,1.73-2.06.43-4.02.65-5.9.65-1.44,0-2.85-.14-4.22-.42-1.38-.28-2.61-.82-3.71-1.63-1.1-.81-1.97-1.94-2.63-3.41-.66-1.46-.99-3.38-.99-5.74v-39.49Z"/>
      <path class="cls-1" d="m1638.06,689.1c0,3.11-.75,6.24-2.24,9.38-1.5,3.14-3.64,5.98-6.44,8.5-2.8,2.52-6.18,4.57-10.13,6.16-3.95,1.59-8.39,2.38-13.31,2.38-2.61,0-5.04-.16-7.28-.47-2.24-.31-4.34-.73-6.3-1.26-1.96-.53-3.84-1.18-5.65-1.96-1.81-.78-3.61-1.63-5.42-2.57l4.11-12.79c1.18.81,2.76,1.68,4.71,2.61,1.96.93,4.09,1.81,6.39,2.61,2.3.81,4.63,1.48,6.96,2.01,2.33.53,4.47.79,6.39.79,2.17,0,3.97-.14,5.37-.42,1.4-.28,2.66-.67,3.78-1.17,1.25-.5,2.24-1.74,2.98-3.74.75-1.99,1.12-4.57,1.12-7.75,0-2.92-.97-5.26-2.89-7-1.93-1.74-4.34-3.25-7.23-4.53-2.9-1.28-6.02-2.55-9.39-3.83-3.36-1.27-6.48-2.92-9.38-4.95-2.89-2.02-5.31-4.62-7.23-7.79-1.93-3.17-2.89-7.34-2.89-12.51,0-2.49.65-5.12,1.96-7.89,1.31-2.77,3.2-5.32,5.7-7.66,2.49-2.33,5.57-4.25,9.24-5.74,3.67-1.5,7.84-2.24,12.51-2.24,3.74,0,7.33.18,10.79.56,3.45.37,6.8.87,10.03,1.49l-2.61,12.79c-1.5-.56-3.19-1.09-5.09-1.59-1.9-.5-3.83-.93-5.79-1.31-1.96-.37-3.87-.67-5.74-.89-1.87-.22-3.52-.33-4.95-.33-1.62,0-3.11.08-4.48.23-1.37.16-2.61.58-3.74,1.26-1.06.62-1.82,1.7-2.29,3.22-.47,1.52-.7,3.35-.7,5.46s.56,3.99,1.68,5.42c1.12,1.43,2.6,2.69,4.43,3.78,1.83,1.09,3.92,2.08,6.26,2.99,2.33.9,4.72,1.87,7.19,2.9,2.46,1.03,4.86,2.21,7.19,3.55,2.33,1.34,4.42,2.98,6.25,4.95,1.83,1.96,3.31,4.34,4.43,7.14,1.12,2.8,1.68,6.19,1.68,10.18Z"/>
      <path class="cls-1" d="m1675.97,715.43c-9.34,0-16.48-2.54-21.43-7.61-4.95-5.07-7.42-12.5-7.42-22.27,0-4.61.61-8.76,1.82-12.46,1.21-3.71,3.03-6.85,5.46-9.43,2.43-2.58,5.45-4.57,9.06-5.97,3.61-1.4,7.77-2.1,12.51-2.1,9.52,0,16.71,2.58,21.56,7.75,4.86,5.17,7.28,12.51,7.28,22.03,0,4.67-.61,8.86-1.82,12.56-1.21,3.7-3.03,6.85-5.46,9.43-2.43,2.58-5.45,4.57-9.06,5.97-3.61,1.4-7.78,2.1-12.5,2.1Zm-11.86-29.97c0,7.53.9,13.07,2.71,16.62,1.81,3.55,4.83,5.32,9.06,5.32,1.62,0,3.14-.14,4.58-.42,1.43-.28,2.61-.7,3.54-1.26.63-.31,1.17-1.08,1.64-2.29.47-1.21.87-2.72,1.21-4.53.35-1.81.6-3.86.75-6.16.15-2.3.23-4.7.23-7.19,0-7.34-.92-12.84-2.75-16.48-1.84-3.64-4.81-5.46-8.92-5.46-1.56,0-3.08.16-4.58.47-1.5.31-2.8.81-3.92,1.49-.62.37-1.17,1.15-1.63,2.33-.47,1.18-.84,2.68-1.12,4.48-.28,1.81-.48,3.83-.61,6.07-.13,2.24-.19,4.57-.19,7Z"/>
      <path class="cls-1" d="m1753.45,628.98c-1.43-.31-3.03-.64-4.81-.98-1.77-.34-3.37-.51-4.8-.51-1,0-2.04.08-3.13.23-1.09.16-1.95.58-2.57,1.26-.31.37-.59,1.18-.84,2.43-.25,1.25-.45,2.76-.61,4.53-.15,1.77-.26,3.72-.33,5.83-.06,2.12-.09,4.26-.09,6.44v8.59h14.47l-.84,6.8c-1.56.13-3.14.29-4.76.47-1.37.12-2.85.25-4.43.38-1.59.12-3.07.25-4.43.38v49.48h-16.34v-49.48c-.5,0-1.25-.02-2.24-.05-1-.03-2.03-.05-3.08-.05h-3.74l.75-4.67c1.18-.44,2.3-.81,3.36-1.12.87-.31,1.78-.61,2.71-.89.93-.28,1.68-.45,2.24-.51v-10.48c0-3.62.79-7.14,2.38-10.57,1.59-3.43,3.65-6.5,6.21-9.21,2.55-2.71,5.44-4.9,8.68-6.55,3.23-1.65,6.5-2.48,9.8-2.48,1.37,0,2.91.08,4.62.23,1.71.16,3.22.33,4.52.51l-2.7,9.99Z"/>
      <path class="cls-1" d="m1761.76,664.73l-6.16-2.05v-3.46l17.71-12.51h4.51l.19,10.08h17.46l-.75,6.35c-1.31.25-2.91.47-4.81.65-1.9.19-3.72.34-5.46.47-2.05.19-4.17.37-6.35.56v32.3c0,2.05.38,3.78,1.12,5.18.75,1.4,2.3,2.1,4.67,2.1.62,0,1.46-.03,2.52-.09,1.06-.06,2.16-.16,3.31-.28,1.15-.13,2.27-.26,3.36-.42,1.09-.16,2.01-.29,2.75-.42v4.76c-1.37.87-2.96,1.76-4.76,2.66-1.8.9-3.72,1.71-5.74,2.43-2.02.72-4.06,1.29-6.12,1.73-2.06.43-4.03.65-5.9.65-1.44,0-2.85-.14-4.22-.42-1.38-.28-2.61-.82-3.71-1.63-1.1-.81-1.97-1.94-2.63-3.41-.66-1.46-.99-3.38-.99-5.74v-39.49Z"/>
      <path class="cls-1" d="m1872.86,665.2c0-1.31-.11-2.69-.33-4.15-.22-1.46-.45-2.54-.7-3.22l12.23-2.05c.31.81.55,1.82.7,3.04.15,1.21.23,2.38.23,3.5,0,4.48-.48,8.84-1.45,13.07-.96,4.23-2.3,8.48-4.01,12.74-1.71,4.26-3.73,8.56-6.07,12.88-2.33,4.32-4.9,8.76-7.7,13.3h-12.04c-.68-3.11-1.38-6.11-2.1-9.01-.72-2.89-1.45-5.74-2.2-8.54-.75-2.8-1.55-5.6-2.43-8.4-.87-2.8-1.8-5.66-2.8-8.59h-.28c-.68,2.61-1.57,5.49-2.66,8.64-1.09,3.14-2.24,6.29-3.46,9.43-1.21,3.14-2.45,6.15-3.73,9.01-1.27,2.86-2.41,5.35-3.41,7.47h-12.32c-1.31-5.29-2.68-10.61-4.11-15.96-1.43-5.35-2.82-10.32-4.15-14.89-1.34-4.58-2.57-8.5-3.68-11.76-1.13-3.27-2.06-5.46-2.81-6.58-.68-.87-1.4-1.46-2.14-1.77-.75-.31-1.56-.47-2.43-.47h-1.21v-5.32c1.43-.31,3.27-.62,5.51-.93,2.24-.31,4.45-.47,6.63-.47,1.68,0,3.11.19,4.29.56,1.18.37,2.18,1.09,2.99,2.15.99,1.25,2.04,3.39,3.12,6.44,1.09,3.05,2.18,6.5,3.27,10.36,1.09,3.86,2.14,7.84,3.17,11.95,1.03,4.11,1.91,7.84,2.66,11.2h.28c1.37-3.36,2.61-6.58,3.73-9.66,1.12-3.08,2.15-6.14,3.08-9.19.93-3.05,1.79-6.11,2.57-9.2.77-3.08,1.51-6.27,2.2-9.57l11.29-1.77c1.93,5.23,3.9,11.08,5.93,17.55,2.02,6.47,4.12,13.75,6.3,21.84h.28c1.62-3.11,2.94-6.16,3.97-9.15,1.02-2.99,1.82-5.88,2.38-8.68.56-2.8.93-5.52,1.12-8.17.18-2.64.28-5.18.28-7.61Z"/>
      <path class="cls-1" d="m1946.24,705.81c1.37,0,3.27-.34,5.69-1.03v3.92c-.87.81-1.9,1.6-3.08,2.38-1.18.78-2.44,1.46-3.78,2.05-1.34.59-2.72,1.06-4.15,1.4-1.43.34-2.83.51-4.2.51-1.49,0-2.77-.22-3.83-.66-1.06-.43-1.98-.98-2.75-1.63-.78-.65-1.43-1.42-1.96-2.29-.53-.87-.98-1.71-1.35-2.52-1.37.93-2.73,1.85-4.06,2.75-1.34.9-2.74,1.7-4.2,2.38-1.46.69-3,1.25-4.62,1.68-1.62.43-3.42.65-5.42.65-4.48,0-8.01-1.4-10.6-4.2-2.58-2.8-3.87-7.03-3.87-12.7,0-2.99.39-5.6,1.16-7.84.77-2.24,2.01-4.09,3.72-5.55,1.71-1.46,3.91-2.58,6.61-3.36,2.7-.78,6-1.23,9.92-1.36l9.86-.28v-8.36c0-2.25-.61-3.91-1.82-4.98-1.21-1.07-3.28-1.6-6.21-1.6-2.05,0-4.43.25-7.14.75-2.71.5-5.56,1.34-8.54,2.52l-2.24-5.95c1.99-.86,4.06-1.71,6.21-2.54,2.15-.83,4.32-1.57,6.53-2.22,2.21-.65,4.45-1.17,6.72-1.57,2.27-.4,4.53-.6,6.77-.6,2.57,0,4.85.23,6.86.7,2,.47,3.68,1.26,5.02,2.38,1.34,1.12,2.38,2.61,3.1,4.48.72,1.87,1.08,4.17,1.08,6.91v26.51c0,6.16,1.52,9.24,4.58,9.24Zm-20.26-2.71c-.06-.25-.12-.89-.19-1.92-.06-1.03-.12-2.33-.18-3.92-.06-1.58-.11-3.39-.14-5.41-.03-2.02-.05-4.15-.05-6.39-3.99,0-7,.23-9.03.7-2.03.47-3.29,1.04-3.78,1.73-.24.25-.45.72-.6,1.4-.15.69-.28,1.45-.37,2.29-.1.84-.16,1.71-.19,2.61-.03.9-.05,1.73-.05,2.47,0,2.61.36,4.73,1.06,6.35.71,1.62,1.89,2.43,3.55,2.43,1.78,0,3.48-.22,5.11-.65,1.63-.44,3.24-.99,4.84-1.68Z"/>
      <path class="cls-1" d="m1994.41,669.78c-1.25-.43-2.58-.79-4.02-1.07-1.43-.28-2.8-.42-4.11-.42-.93,0-1.77.08-2.52.23-.75.16-1.45.42-2.1.8-.65.37-1.31.87-1.96,1.49-.65.62-1.38,1.37-2.19,2.24v41.26h-16.34v-57.51h14.66l1.4,9.15h.09c.43-.68.97-1.48,1.59-2.38.62-.9,1.29-1.8,2.01-2.71.72-.9,1.46-1.73,2.24-2.47.77-.75,1.57-1.28,2.38-1.59,1.43-.5,3.04-.82,4.85-.98,1.8-.15,3.76-.23,5.88-.23l-1.87,14.19Z"/>
      <path class="cls-1" d="m2030.91,655.59c2.74,0,5.4.39,7.98,1.17,2.58.78,4.96,2.09,7.14,3.92,2.17,1.84,4.06,4.29,5.65,7.37,1.59,3.08,2.78,6.93,3.6,11.53v.75c-.5.69-1.17,1.31-2.01,1.87-.84.56-1.95,1.05-3.31,1.45-1.37.41-3.05.78-5.04,1.12-1.99.34-4.39.6-7.19.79l-18.11,1.4v2.43c0,4.48,1.18,8.19,3.55,11.11,2.36,2.93,5.91,4.39,10.64,4.39,1.93,0,3.95-.2,6.07-.61,2.12-.4,4.12-.89,6.02-1.45,1.9-.56,3.64-1.13,5.23-1.73,1.58-.59,2.78-1.1,3.6-1.54l1.4,4.2c-1.74,1.31-3.7,2.66-5.88,4.06-2.18,1.4-4.51,2.66-7,3.78-2.49,1.12-5.12,2.04-7.89,2.75-2.77.71-5.62,1.07-8.54,1.07-3.42,0-6.61-.51-9.57-1.54-2.96-1.03-5.51-2.66-7.66-4.9-2.15-2.24-3.84-5.17-5.09-8.77-1.25-3.61-1.87-8-1.87-13.16,0-5.79.72-10.69,2.15-14.7,1.43-4.02,3.42-7.25,5.97-9.71,2.55-2.46,5.56-4.25,9.01-5.37,3.46-1.12,7.17-1.68,11.16-1.68Zm-7.75,9.71c-.43.37-.86,1.07-1.26,2.1-.4,1.03-.76,2.24-1.07,3.64-.31,1.4-.56,2.86-.75,4.39-.19,1.52-.28,3-.28,4.43l18.02-.84c-.19-1.68-.47-3.42-.84-5.23-.37-1.81-.92-3.46-1.63-4.95-.72-1.5-1.6-2.74-2.66-3.74-1.06-.99-2.33-1.49-3.82-1.49-1.06,0-2.06.13-2.99.37-.93.25-1.83.68-2.7,1.31Z"/>
      <path class="cls-1" d="m2144.06,689.1c0,3.11-.75,6.24-2.24,9.38-1.49,3.14-3.64,5.98-6.44,8.5-2.8,2.52-6.18,4.57-10.13,6.16-3.95,1.59-8.39,2.38-13.31,2.38-2.61,0-5.04-.16-7.28-.47-2.24-.31-4.34-.73-6.3-1.26-1.96-.53-3.84-1.18-5.65-1.96-1.81-.78-3.61-1.63-5.41-2.57l4.1-12.79c1.18.81,2.76,1.68,4.71,2.61,1.96.93,4.09,1.81,6.4,2.61,2.3.81,4.62,1.48,6.96,2.01,2.33.53,4.47.79,6.4.79,2.17,0,3.97-.14,5.37-.42,1.4-.28,2.66-.67,3.78-1.17,1.25-.5,2.24-1.74,2.99-3.74.75-1.99,1.12-4.57,1.12-7.75,0-2.92-.97-5.26-2.9-7-1.93-1.74-4.34-3.25-7.23-4.53-2.89-1.28-6.02-2.55-9.39-3.83-3.36-1.27-6.48-2.92-9.38-4.95-2.9-2.02-5.31-4.62-7.23-7.79-1.93-3.17-2.9-7.34-2.9-12.51,0-2.49.65-5.12,1.96-7.89,1.31-2.77,3.2-5.32,5.7-7.66,2.49-2.33,5.57-4.25,9.24-5.74,3.68-1.5,7.84-2.24,12.51-2.24,3.74,0,7.33.18,10.79.56,3.45.37,6.8.87,10.03,1.49l-2.61,12.79c-1.5-.56-3.19-1.09-5.09-1.59-1.9-.5-3.83-.93-5.79-1.31-1.96-.37-3.87-.67-5.74-.89-1.87-.22-3.52-.33-4.95-.33-1.62,0-3.11.08-4.48.23-1.37.16-2.61.58-3.74,1.26-1.05.62-1.82,1.7-2.29,3.22-.47,1.52-.7,3.35-.7,5.46s.56,3.99,1.68,5.42c1.12,1.43,2.6,2.69,4.43,3.78,1.83,1.09,3.92,2.08,6.26,2.99,2.33.9,4.72,1.87,7.19,2.9,2.46,1.03,4.86,2.21,7.19,3.55,2.33,1.34,4.42,2.98,6.25,4.95,1.83,1.96,3.31,4.34,4.43,7.14,1.12,2.8,1.68,6.19,1.68,10.18Z"/>
      <path class="cls-1" d="m2181.96,715.43c-9.34,0-16.48-2.54-21.43-7.61-4.95-5.07-7.42-12.5-7.42-22.27,0-4.61.61-8.76,1.82-12.46,1.21-3.71,3.03-6.85,5.46-9.43,2.43-2.58,5.45-4.57,9.06-5.97,3.61-1.4,7.77-2.1,12.51-2.1,9.52,0,16.71,2.58,21.56,7.75,4.86,5.17,7.28,12.51,7.28,22.03,0,4.67-.6,8.86-1.82,12.56-1.21,3.7-3.03,6.85-5.46,9.43-2.43,2.58-5.45,4.57-9.06,5.97-3.61,1.4-7.78,2.1-12.51,2.1Zm-11.86-29.97c0,7.53.9,13.07,2.71,16.62,1.81,3.55,4.83,5.32,9.06,5.32,1.62,0,3.14-.14,4.58-.42,1.43-.28,2.61-.7,3.54-1.26.63-.31,1.17-1.08,1.64-2.29.47-1.21.87-2.72,1.21-4.53.34-1.81.59-3.86.75-6.16.15-2.3.23-4.7.23-7.19,0-7.34-.92-12.84-2.75-16.48-1.83-3.64-4.81-5.46-8.91-5.46-1.56,0-3.08.16-4.58.47-1.5.31-2.8.81-3.92,1.49-.63.37-1.17,1.15-1.63,2.33-.47,1.18-.84,2.68-1.12,4.48-.28,1.81-.48,3.83-.6,6.07-.13,2.24-.19,4.57-.19,7Z"/>
      <path class="cls-1" d="m2241.62,714.31h-16.34v-94.29l16.34-3.36v97.65Z"/>
      <path class="cls-1" d="m2275.88,656.8v38.56c0,3.42.55,5.96,1.64,7.61,1.1,1.65,2.97,2.47,5.61,2.47.94,0,1.98-.14,3.11-.42,1.13-.28,2.29-.65,3.48-1.12,1.19-.47,2.34-.99,3.44-1.59,1.1-.59,2.12-1.23,3.06-1.91v-43.6h16.34v57.51h-14.66l-1.5-6.72h-.19c-1.12.75-2.47,1.57-4.06,2.47-1.59.9-3.3,1.77-5.13,2.61-1.83.84-3.76,1.54-5.79,2.1-2.03.56-4,.84-5.93.84-2.18,0-4.22-.36-6.11-1.07-1.9-.72-3.56-1.77-5-3.17-1.43-1.4-2.57-3.17-3.41-5.32-.84-2.15-1.26-4.62-1.26-7.42v-41.82h16.34Z"/>
      <path class="cls-1" d="m2331.52,664.73l-6.16-2.05v-3.46l17.71-12.51h4.51l.19,10.08h17.46l-.75,6.35c-1.31.25-2.91.47-4.81.65-1.9.19-3.72.34-5.46.47-2.05.19-4.17.37-6.35.56v32.3c0,2.05.38,3.78,1.12,5.18.75,1.4,2.3,2.1,4.67,2.1.62,0,1.46-.03,2.52-.09,1.06-.06,2.16-.16,3.31-.28,1.15-.13,2.27-.26,3.36-.42,1.09-.16,2.01-.29,2.75-.42v4.76c-1.37.87-2.96,1.76-4.76,2.66-1.8.9-3.72,1.71-5.74,2.43-2.02.72-4.06,1.29-6.12,1.73-2.06.43-4.03.65-5.9.65-1.44,0-2.85-.14-4.22-.42-1.38-.28-2.61-.82-3.71-1.63-1.1-.81-1.97-1.94-2.63-3.41-.66-1.46-.99-3.38-.99-5.74v-39.49Z"/>
      <path class="cls-1" d="m2384.64,624.22l10.36,10.74-10.36,10.83-10.27-10.83,10.27-10.74Zm8.5,90.09h-16.34v-57.51h16.34v57.51Z"/>
      <path class="cls-1" d="m2436.36,715.43c-9.34,0-16.48-2.54-21.43-7.61-4.95-5.07-7.42-12.5-7.42-22.27,0-4.61.61-8.76,1.82-12.46,1.21-3.71,3.03-6.85,5.46-9.43,2.43-2.58,5.45-4.57,9.06-5.97,3.61-1.4,7.77-2.1,12.51-2.1,9.52,0,16.71,2.58,21.56,7.75,4.86,5.17,7.28,12.51,7.28,22.03,0,4.67-.6,8.86-1.82,12.56-1.21,3.7-3.03,6.85-5.46,9.43-2.43,2.58-5.45,4.57-9.06,5.97-3.61,1.4-7.78,2.1-12.51,2.1Zm-11.86-29.97c0,7.53.9,13.07,2.71,16.62,1.81,3.55,4.83,5.32,9.06,5.32,1.62,0,3.14-.14,4.58-.42,1.43-.28,2.61-.7,3.54-1.26.63-.31,1.17-1.08,1.64-2.29.47-1.21.87-2.72,1.21-4.53.34-1.81.6-3.86.75-6.16.15-2.3.23-4.7.23-7.19,0-7.34-.92-12.84-2.75-16.48-1.83-3.64-4.81-5.46-8.91-5.46-1.56,0-3.08.16-4.58.47-1.5.31-2.8.81-3.92,1.49-.63.37-1.17,1.15-1.63,2.33-.47,1.18-.84,2.68-1.12,4.48-.28,1.81-.48,3.83-.61,6.07-.13,2.24-.19,4.57-.19,7Z"/>
      <path class="cls-1" d="m2516.28,714.31v-38.56c0-3.42-.55-5.94-1.63-7.56-1.09-1.62-2.94-2.43-5.56-2.43-.93,0-1.98.12-3.13.37-1.15.25-2.3.61-3.45,1.07-1.15.47-2.29,1-3.41,1.59-1.12.59-2.14,1.23-3.08,1.92v43.6h-16.34v-57.51h14.56l1.5,6.72h.19c1.12-.75,2.47-1.57,4.06-2.47,1.58-.9,3.31-1.76,5.18-2.57,1.87-.81,3.79-1.49,5.79-2.05,1.99-.56,3.95-.84,5.88-.84,2.18,0,4.22.36,6.11,1.07,1.9.72,3.56,1.77,4.99,3.17,1.43,1.4,2.57,3.16,3.41,5.27.84,2.12,1.26,4.61,1.26,7.47v41.73h-16.33Z"/>
      <path class="cls-1" d="m2589.47,695.36c0,3.24-.67,5.9-2,7.98-1.34,2.09-2.91,3.91-4.71,5.46-.93.81-1.93,1.62-2.99,2.43-1.06.81-2.24,1.53-3.55,2.15-1.3.62-2.8,1.12-4.48,1.49-1.68.37-3.64.56-5.88.56-4.05,0-7.73-.42-11.06-1.26-3.33-.84-6.46-2.19-9.38-4.06l4.02-10.74c1.25.74,2.57,1.58,3.97,2.52,1.4.93,2.9,1.79,4.48,2.57,1.58.78,3.25,1.43,5,1.96,1.74.53,3.52.79,5.32.79,1.25,0,2.38-.09,3.41-.28,1.03-.19,1.88-.53,2.57-1.03.56-.43.98-1.23,1.26-2.38.28-1.15.42-2.53.42-4.15,0-1.87-.7-3.35-2.1-4.44-1.4-1.09-3.16-2.04-5.28-2.85-2.12-.81-4.39-1.62-6.81-2.43-2.43-.81-4.7-1.88-6.82-3.22-2.12-1.34-3.88-3.05-5.28-5.13-1.4-2.08-2.1-4.84-2.1-8.26,0-2.24.68-4.47,2.06-6.67,1.37-2.21,2.86-4.03,4.48-5.46,1.99-1.81,4.2-3.14,6.62-4.02,2.43-.87,5.23-1.31,8.41-1.31,2.67,0,5.51.16,8.5.47,2.99.31,5.79.65,8.4,1.03l-1.77,11.39c-1.31-.43-2.73-.87-4.25-1.31-1.53-.43-3.03-.84-4.53-1.21-1.5-.37-2.94-.67-4.34-.89-1.4-.22-2.66-.33-3.78-.33-1.43,0-2.52.08-3.27.23-.75.16-1.34.36-1.77.61-.38.25-.67.78-.89,1.59-.22.81-.32,1.65-.32,2.52,0,1.74.7,3.11,2.1,4.11,1.4.99,3.16,1.88,5.28,2.66,2.11.78,4.4,1.59,6.86,2.43,2.46.84,4.74,1.91,6.86,3.22,2.12,1.31,3.88,3,5.28,5.09,1.4,2.09,2.1,4.81,2.1,8.17Z"/>
    </g>
    <g>
      <path class="cls-1" d="m2614.68,421.31h-9.01v-47.39h-16.21v-7.72h41.43v7.72h-16.21v47.39Z"/>
      <path class="cls-1" d="m2663.16,421.31l-15.98-46.03h-.3c.43,6.84.64,13.24.64,19.22v26.8h-8.18v-55.11h12.7l15.3,43.84h.22l15.76-43.84h12.74v55.11h-8.67v-27.25c0-2.74.07-6.31.21-10.71.14-4.4.26-7.06.36-7.99h-.3l-16.55,45.95h-7.95Z"/>
    </g>
  </g>
</svg>