<svg width="218" height="52" viewBox="0 0 218 52" fill="none" xmlns="http://www.w3.org/2000/svg">
<path d="M209.95 5.08172H209.12V0.721719H207.63V0.0117188H211.45V0.721719H209.96V5.08172H209.95Z" fill="white"/>
<path d="M214.41 5.08172L212.94 0.841719H212.91C212.95 1.47172 212.97 2.06172 212.97 2.61172V5.08172H212.22V0.0117188H213.39L214.8 4.05172H214.82L216.27 0.0117188H217.44V5.09172H216.64V2.58172C216.64 2.33172 216.64 2.00172 216.66 1.59172C216.68 1.18172 216.68 0.941719 216.69 0.851719H216.66L215.14 5.08172H214.41Z" fill="white"/>
<path d="M88.89 47.2106H85.98L85.5 48.6006H83.96L86.59 41.2906H88.3L90.93 48.6006H89.38L88.9 47.2106H88.89ZM88.49 46.0306L87.43 42.9706L86.37 46.0306H88.49ZM101.43 45.4706C101.7 45.8106 101.83 46.1906 101.83 46.6206C101.83 47.0106 101.73 47.3506 101.54 47.6506C101.35 47.9506 101.07 48.1806 100.71 48.3506C100.35 48.5206 99.92 48.6006 99.42 48.6006H96.27V41.3006H99.28C99.78 41.3006 100.2 41.3806 100.56 41.5406C100.92 41.7006 101.19 41.9206 101.38 42.2106C101.56 42.5006 101.66 42.8206 101.66 43.1806C101.66 43.6106 101.55 43.9606 101.32 44.2506C101.09 44.5406 100.79 44.7406 100.41 44.8606C100.82 44.9406 101.16 45.1406 101.42 45.4806L101.43 45.4706ZM97.74 44.3106H99.08C99.43 44.3106 99.7 44.2306 99.89 44.0706C100.08 43.9106 100.17 43.6906 100.17 43.4006C100.17 43.1106 100.08 42.8806 99.89 42.7206C99.7 42.5606 99.43 42.4806 99.08 42.4806H97.74V44.3106ZM100.05 47.1506C100.25 46.9806 100.35 46.7506 100.35 46.4406C100.35 46.1306 100.25 45.8806 100.04 45.7006C99.83 45.5206 99.55 45.4306 99.19 45.4306H97.75V47.4006H99.23C99.58 47.4006 99.86 47.3206 100.06 47.1506H100.05ZM104.04 41.8606C103.87 41.7006 103.78 41.4906 103.78 41.2506C103.78 41.0106 103.86 40.8006 104.04 40.6406C104.21 40.4806 104.43 40.3906 104.68 40.3906C104.93 40.3906 105.15 40.4706 105.32 40.6406C105.49 40.8006 105.58 41.0106 105.58 41.2506C105.58 41.4906 105.5 41.7006 105.32 41.8606C105.15 42.0206 104.93 42.1106 104.68 42.1106C104.43 42.1106 104.21 42.0306 104.04 41.8606ZM105.41 42.8006V48.6006H103.95V42.8006H105.41ZM109.13 47.3906H111.72V48.5906H107.47V47.4106L110 44.0006H107.48V42.8006H111.69V43.9806L109.14 47.3906H109.13ZM115.49 44.0006V46.8006C115.49 47.0006 115.54 47.1406 115.63 47.2206C115.72 47.3106 115.88 47.3506 116.11 47.3506H116.79V48.5806H115.87C114.64 48.5806 114.02 47.9806 114.02 46.7806V43.9906H113.33V42.7906H114.02V41.3606H115.5V42.7906H116.8V43.9906H115.5L115.49 44.0006ZM124.14 46.1406H119.9C119.93 46.5606 120.08 46.8906 120.34 47.1206C120.6 47.3606 120.91 47.4706 121.29 47.4706C121.83 47.4706 122.22 47.2406 122.45 46.7706H124.03C123.86 47.3306 123.54 47.7906 123.07 48.1506C122.6 48.5106 122.01 48.6906 121.32 48.6906C120.76 48.6906 120.26 48.5706 119.82 48.3206C119.38 48.0706 119.03 47.7206 118.78 47.2706C118.53 46.8206 118.41 46.2906 118.41 45.7006C118.41 45.1106 118.53 44.5706 118.78 44.1206C119.03 43.6706 119.37 43.3206 119.81 43.0706C120.25 42.8206 120.75 42.7006 121.33 42.7006C121.91 42.7006 122.37 42.8206 122.81 43.0506C123.25 43.2906 123.58 43.6206 123.82 44.0606C124.06 44.5006 124.18 45.0006 124.18 45.5606C124.18 45.7706 124.17 45.9606 124.14 46.1306V46.1406ZM122.66 45.1606C122.66 44.7806 122.52 44.4806 122.25 44.2506C121.98 44.0206 121.66 43.9106 121.28 43.9106C120.9 43.9106 120.61 44.0206 120.36 44.2406C120.11 44.4606 119.96 44.7606 119.91 45.1606H122.66ZM126.18 44.1206C126.42 43.6706 126.76 43.3206 127.19 43.0706C127.62 42.8206 128.12 42.7006 128.68 42.7006C129.4 42.7006 129.99 42.8806 130.46 43.2406C130.93 43.6006 131.25 44.1006 131.41 44.7506H129.83C129.75 44.5006 129.61 44.3006 129.41 44.1606C129.21 44.0206 128.97 43.9406 128.67 43.9406C128.25 43.9406 127.92 44.0906 127.68 44.3906C127.44 44.6906 127.31 45.1206 127.31 45.6806C127.31 46.2406 127.43 46.6606 127.68 46.9606C127.93 47.2606 128.25 47.4106 128.67 47.4106C129.26 47.4106 129.65 47.1406 129.83 46.6206H131.41C131.25 47.2506 130.93 47.7506 130.46 48.1206C129.99 48.4906 129.39 48.6706 128.68 48.6706C128.12 48.6706 127.63 48.5506 127.19 48.3006C126.75 48.0506 126.42 47.7006 126.18 47.2506C125.94 46.8006 125.81 46.2806 125.81 45.6706C125.81 45.0606 125.93 44.5406 126.18 44.0906V44.1206ZM137.86 43.0106C138.2 43.2006 138.47 43.4806 138.66 43.8606C138.85 44.2406 138.95 44.6806 138.95 45.2006V48.6006H137.49V45.4006C137.49 44.9406 137.37 44.5906 137.14 44.3406C136.91 44.0906 136.6 43.9706 136.2 43.9706C135.8 43.9706 135.48 44.0906 135.24 44.3406C135 44.5906 134.89 44.9406 134.89 45.4006V48.6006H133.43V40.8606H134.89V43.5306C135.08 43.2806 135.33 43.0806 135.64 42.9406C135.95 42.8006 136.3 42.7206 136.69 42.7206C137.13 42.7206 137.52 42.8206 137.86 43.0106ZM144.85 43.0106C145.17 42.4406 145.62 42.0006 146.18 41.6806C146.74 41.3606 147.37 41.2006 148.07 41.2006C148.89 41.2006 149.6 41.4106 150.22 41.8306C150.84 42.2506 151.26 42.8306 151.51 43.5706H149.83C149.66 43.2206 149.43 42.9606 149.12 42.7806C148.82 42.6106 148.47 42.5206 148.07 42.5206C147.64 42.5206 147.27 42.6206 146.93 42.8206C146.6 43.0206 146.34 43.3006 146.16 43.6606C145.98 44.0206 145.88 44.4506 145.88 44.9406C145.88 45.4306 145.97 45.8506 146.16 46.2106C146.34 46.5806 146.6 46.8606 146.93 47.0606C147.26 47.2606 147.64 47.3606 148.07 47.3606C148.47 47.3606 148.82 47.2706 149.12 47.0906C149.42 46.9106 149.66 46.6506 149.83 46.3006H151.51C151.27 47.0506 150.84 47.6306 150.23 48.0406C149.62 48.4606 148.9 48.6606 148.08 48.6606C147.38 48.6606 146.75 48.5006 146.19 48.1806C145.63 47.8606 145.18 47.4206 144.86 46.8606C144.54 46.3006 144.37 45.6506 144.37 44.9306C144.37 44.2106 144.53 43.5706 144.86 43.0006L144.85 43.0106ZM154.76 48.3206C154.31 48.0706 153.96 47.7206 153.71 47.2706C153.46 46.8206 153.33 46.2906 153.33 45.7006C153.33 45.1106 153.46 44.5806 153.72 44.1306C153.98 43.6806 154.34 43.3306 154.79 43.0806C155.24 42.8306 155.75 42.7106 156.31 42.7106C156.87 42.7106 157.37 42.8306 157.83 43.0806C158.28 43.3306 158.64 43.6806 158.9 44.1306C159.16 44.5806 159.29 45.1106 159.29 45.7006C159.29 46.2906 159.16 46.8206 158.89 47.2706C158.62 47.7206 158.26 48.0706 157.8 48.3206C157.34 48.5706 156.83 48.6906 156.27 48.6906C155.71 48.6906 155.21 48.5706 154.76 48.3206ZM157.02 47.2206C157.25 47.0906 157.44 46.9006 157.58 46.6406C157.72 46.3806 157.79 46.0706 157.79 45.7006C157.79 45.1506 157.64 44.7306 157.35 44.4306C157.06 44.1306 156.71 43.9906 156.29 43.9906C155.87 43.9906 155.52 44.1406 155.24 44.4306C154.96 44.7206 154.82 45.1506 154.82 45.7006C154.82 46.2506 154.96 46.6706 155.23 46.9706C155.5 47.2706 155.85 47.4106 156.27 47.4106C156.54 47.4106 156.78 47.3406 157.02 47.2206ZM170.23 43.3706C170.67 43.8106 170.89 44.4106 170.89 45.2006V48.6006H169.43V45.4006C169.43 44.9506 169.31 44.6006 169.08 44.3606C168.85 44.1206 168.54 44.0006 168.14 44.0006C167.74 44.0006 167.43 44.1206 167.19 44.3606C166.96 44.6006 166.84 44.9506 166.84 45.4006V48.6006H165.38V45.4006C165.38 44.9506 165.26 44.6006 165.03 44.3606C164.8 44.1206 164.49 44.0006 164.09 44.0006C163.69 44.0006 163.37 44.1206 163.13 44.3606C162.89 44.6006 162.78 44.9506 162.78 45.4006V48.6006H161.32V42.8006H162.78V43.5006C162.97 43.2606 163.21 43.0606 163.51 42.9306C163.81 42.7906 164.13 42.7206 164.49 42.7206C164.94 42.7206 165.35 42.8206 165.7 43.0106C166.05 43.2006 166.33 43.4806 166.53 43.8306C166.72 43.4906 166.99 43.2306 167.35 43.0206C167.71 42.8106 168.1 42.7206 168.52 42.7206C169.23 42.7206 169.8 42.9406 170.24 43.3806L170.23 43.3706ZM175.46 42.9706C175.79 42.7906 176.17 42.7006 176.6 42.7006C177.1 42.7006 177.54 42.8206 177.94 43.0706C178.34 43.3106 178.66 43.6606 178.89 44.1106C179.12 44.5606 179.24 45.0806 179.24 45.6706C179.24 46.2606 179.12 46.7906 178.89 47.2506C178.66 47.7106 178.34 48.0606 177.94 48.3106C177.54 48.5606 177.09 48.6906 176.6 48.6906C176.17 48.6906 175.8 48.6006 175.47 48.4306C175.14 48.2606 174.88 48.0406 174.68 47.7706V51.3606H173.22V42.8006H174.68V43.6406C174.87 43.3706 175.13 43.1506 175.46 42.9806V42.9706ZM177.53 44.7706C177.39 44.5206 177.2 44.3206 176.96 44.1906C176.73 44.0606 176.47 43.9906 176.2 43.9906C175.93 43.9906 175.69 44.0606 175.45 44.1906C175.22 44.3206 175.03 44.5206 174.88 44.7806C174.73 45.0406 174.66 45.3406 174.66 45.6906C174.66 46.0406 174.73 46.3406 174.88 46.6006C175.02 46.8606 175.21 47.0506 175.45 47.1906C175.68 47.3206 175.93 47.3906 176.2 47.3906C176.47 47.3906 176.72 47.3206 176.96 47.1806C177.19 47.0406 177.38 46.8406 177.53 46.5806C177.68 46.3206 177.75 46.0106 177.75 45.6606C177.75 45.3106 177.68 45.0106 177.53 44.7506V44.7706ZM181.23 44.1206C181.46 43.6706 181.78 43.3206 182.18 43.0706C182.58 42.8306 183.03 42.7006 183.52 42.7006C183.95 42.7006 184.33 42.7906 184.66 42.9606C184.99 43.1306 185.24 43.3506 185.44 43.6206V42.7906H186.92V48.5906H185.44V47.7406C185.25 48.0106 184.99 48.2406 184.66 48.4106C184.33 48.5806 183.95 48.6806 183.52 48.6806C183.03 48.6806 182.59 48.5506 182.19 48.3006C181.79 48.0506 181.47 47.6906 181.24 47.2406C181.01 46.7906 180.89 46.2606 180.89 45.6606C180.89 45.0606 181.01 44.5506 181.24 44.1006L181.23 44.1206ZM185.23 44.7806C185.09 44.5306 184.9 44.3306 184.66 44.1906C184.42 44.0506 184.17 43.9906 183.9 43.9906C183.63 43.9906 183.38 44.0606 183.15 44.1906C182.92 44.3206 182.73 44.5206 182.59 44.7706C182.45 45.0206 182.37 45.3306 182.37 45.6806C182.37 46.0306 182.44 46.3306 182.59 46.6006C182.73 46.8606 182.92 47.0606 183.16 47.2006C183.39 47.3406 183.64 47.4106 183.91 47.4106C184.18 47.4106 184.44 47.3406 184.67 47.2106C184.9 47.0806 185.1 46.8806 185.24 46.6206C185.38 46.3706 185.45 46.0606 185.45 45.7006C185.45 45.3406 185.38 45.0406 185.24 44.7806H185.23ZM194.18 43.3706C194.6 43.8106 194.82 44.4106 194.82 45.2006V48.6006H193.36V45.4006C193.36 44.9406 193.24 44.5906 193.01 44.3406C192.78 44.0906 192.47 43.9706 192.07 43.9706C191.67 43.9706 191.35 44.0906 191.11 44.3406C190.87 44.5906 190.76 44.9406 190.76 45.4006V48.6006H189.3V42.8006H190.76V43.5206C190.96 43.2706 191.2 43.0706 191.51 42.9306C191.81 42.7906 192.15 42.7106 192.51 42.7106C193.2 42.7106 193.76 42.9306 194.18 43.3706ZM202.69 42.8006L199.1 51.3406H197.54L198.8 48.4506L196.48 42.8006H198.12L199.62 46.8506L201.14 42.8006H202.7H202.69Z" fill="white"/>
<path d="M129.49 9.72906C128.19 8.91906 126.74 8.50906 125.14 8.50906C123.77 8.50906 122.58 8.78906 121.56 9.34906C120.97 9.66906 120.46 10.0491 120.02 10.4791C119.7 10.7991 119.16 10.5891 119.16 10.1391V9.28906C119.16 9.01906 118.94 8.78906 118.66 8.78906H113.71C113.44 8.78906 113.21 9.00906 113.21 9.28906V36.9591C113.21 37.2291 113.43 37.4591 113.71 37.4591H118.66C118.93 37.4591 119.16 37.2391 119.16 36.9591V26.8691C119.16 26.4191 119.69 26.2091 120.02 26.5191C120.47 26.9491 120.99 27.3291 121.58 27.6491C122.61 28.2091 123.8 28.4891 125.15 28.4891C126.75 28.4891 128.2 28.0791 129.5 27.2491C130.8 26.4291 131.82 25.2591 132.58 23.7391C133.33 22.2191 133.71 20.4591 133.71 18.4691C133.71 16.4791 133.33 14.7191 132.58 13.2191C131.82 11.7091 130.8 10.5491 129.5 9.73906L129.49 9.72906ZM126.39 21.9991C125.55 22.8691 124.55 23.3091 123.36 23.3091C122.17 23.3091 121.17 22.8791 120.35 22.0191C119.53 21.1591 119.11 19.9891 119.11 18.5091C119.11 17.0291 119.52 15.8491 120.35 14.9991C121.17 14.1391 122.18 13.7091 123.36 13.7091C124.54 13.7091 125.58 14.1291 126.4 14.9791C127.22 15.8291 127.64 16.9891 127.64 18.4791C127.64 19.9691 127.22 21.1391 126.39 22.0091V21.9991ZM202.3 0.0390625H197.35C197.08 0.0390625 196.85 0.259062 196.85 0.539062V10.1391C196.85 10.5891 196.32 10.7991 195.99 10.4891C195.54 10.0591 195.02 9.67906 194.43 9.35906C193.4 8.79906 192.21 8.51906 190.86 8.51906C189.26 8.51906 187.81 8.92906 186.51 9.75906C185.21 10.5791 184.19 11.7491 183.43 13.2691C182.68 14.7891 182.3 16.5491 182.3 18.5391C182.3 20.5291 182.68 22.2891 183.43 23.7891C184.19 25.2991 185.21 26.4591 186.51 27.2691C187.81 28.0791 189.26 28.4891 190.86 28.4891C192.23 28.4891 193.42 28.2091 194.44 27.6491C195.03 27.3291 195.54 26.9491 195.98 26.5191C196.3 26.1991 196.84 26.4091 196.84 26.8591V27.7091C196.84 27.9791 197.06 28.2091 197.34 28.2091H202.29C202.56 28.2091 202.79 27.9891 202.79 27.7091V0.539062C202.79 0.269062 202.57 0.0390625 202.29 0.0390625H202.3ZM195.64 22.0191C194.82 22.8791 193.81 23.3091 192.63 23.3091C191.45 23.3091 190.41 22.8891 189.59 22.0391C188.77 21.1891 188.35 20.0291 188.35 18.5391C188.35 17.0491 188.77 15.8791 189.6 15.0091C190.43 14.1391 191.44 13.6991 192.63 13.6991C193.82 13.6991 194.82 14.1291 195.64 14.9891C196.46 15.8491 196.88 17.0191 196.88 18.4991C196.88 19.9791 196.47 21.1591 195.64 22.0091V22.0191ZM156.37 8.78906H151.42C151.15 8.78906 150.92 9.00906 150.92 9.28906V10.0991C150.92 10.5391 150.38 10.7791 150.07 10.4691C149.63 10.0391 149.12 9.65906 148.53 9.33906C147.5 8.77906 146.3 8.49906 144.93 8.49906C143.33 8.49906 141.88 8.90906 140.58 9.71906C139.28 10.5291 138.26 11.6891 137.5 13.1991C136.75 14.7091 136.37 16.4591 136.37 18.4491C136.37 20.4391 136.75 22.1991 137.5 23.7191C138.25 25.2391 139.28 26.4091 140.58 27.2291C141.88 28.0491 143.32 28.4691 144.89 28.4691C146.26 28.4691 147.46 28.1891 148.49 27.6291C149.08 27.3091 149.6 26.9291 150.05 26.4891C150.37 26.1691 150.91 26.3791 150.91 26.8291V27.6791C150.91 27.9491 151.13 28.1791 151.41 28.1791H156.36C156.63 28.1791 156.86 27.9591 156.86 27.6791V9.28906C156.86 9.01906 156.64 8.78906 156.36 8.78906H156.37ZM149.68 22.0191C148.86 22.8791 147.85 23.3091 146.67 23.3091C145.49 23.3091 144.48 22.8691 143.66 21.9991C142.84 21.1291 142.43 19.9491 142.43 18.4691C142.43 16.1591 143.42 14.6291 145.41 13.8591C145.44 13.8491 145.48 13.8391 145.52 13.8291C147.22 13.4791 148.61 13.8691 149.68 14.9891C150.5 15.8491 150.92 17.0191 150.92 18.4991C150.92 19.9791 150.51 21.1591 149.68 22.0091V22.0191ZM177.41 10.7891C178.77 12.2591 179.44 14.2891 179.44 16.8591V27.6991C179.44 27.9691 179.22 28.1991 178.94 28.1991H174.02C173.75 28.1991 173.52 27.9791 173.52 27.6991V17.6591C173.52 16.3591 173.18 15.3491 172.51 14.6291C171.84 13.9091 170.93 13.5491 169.8 13.5491C168.67 13.5491 167.76 13.9091 167.09 14.6291C166.42 15.3491 166.08 16.3591 166.08 17.6591V27.6991C166.08 27.9691 165.86 28.1991 165.58 28.1991H160.63C160.36 28.1991 160.13 27.9791 160.13 27.6991V9.28906C160.13 9.01906 160.35 8.78906 160.63 8.78906H165.58C165.85 8.78906 166.08 9.00906 166.08 9.28906V10.0491C166.08 10.4891 166.6 10.7091 166.92 10.4091C167.38 9.98906 167.91 9.62906 168.51 9.33906C169.53 8.83906 170.68 8.58906 171.96 8.58906C174.23 8.58906 176.05 9.32906 177.41 10.7991V10.7891Z" fill="white"/>
<path d="M103.73 13.05C102.49 14.78 102.49 17.11 103.73 18.84L109.86 27.38C110.13 27.75 109.86 28.28 109.4 28.28H101.78C101.42 28.28 101.07 28.1 100.86 27.81L97.6099 23.28L100.39 19.41C101.88 17.33 101.88 14.55 100.39 12.47L97.6099 8.6L103.44 0.47C103.66 0.17 104 0 104.36 0H111.98C112.44 0 112.71 0.52 112.44 0.9L103.72 13.05H103.73Z" fill="white"/>
<path d="M99.5998 18.8414L93.1598 27.8114C92.9498 28.1114 92.6098 28.2814 92.2398 28.2814H84.6198C84.1598 28.2814 83.8898 27.7614 84.1598 27.3814L92.3798 15.9414L84.5898 5.09141C84.3198 4.72141 84.5898 4.19141 85.0498 4.19141H92.6698C93.0398 4.19141 93.3798 4.37141 93.5898 4.66141L99.6098 13.0414C100.85 14.7714 100.85 17.1014 99.6098 18.8314L99.5998 18.8414Z" fill="white"/>
<path d="M93.7199 14.0692L92.3799 15.9392L84.5899 5.09922C84.3199 4.72922 84.5899 4.19922 85.0499 4.19922H92.6599C93.0299 4.19922 93.3699 4.37922 93.5799 4.66922L93.7199 4.86922C95.6899 7.61922 95.6899 11.3192 93.7199 14.0692Z" fill="white"/>
<path opacity="0.8" d="M93.9199 5.16016C95.2799 9.24016 93.3199 11.7802 90.9399 13.9402L92.3799 15.9402L93.7199 14.0702C95.5299 11.6002 95.7899 8.04016 93.9199 5.16016Z" fill="url(#paint0_linear_6732_24563)"/>
<path d="M12.68 0.39C11.76 0.17 10.76 0.0499997 9.67 0.0299997C9.53 0.0299997 9.39 0.0299997 9.25 0.0299997H0.5C0.23 0.0299997 0 0.25 0 0.53V27.72C0 27.99 0.22 28.22 0.5 28.22H6.37C6.65 28.22 6.87 28 6.87 27.72V18.6C6.87 18.32 7.09 18.1 7.37 18.1H9.25C9.33 18.1 9.4 18.1 9.48 18.1C10.88 18.08 12.14 17.92 13.26 17.58C16.72 16.31 19.19 12.99 19.19 9.08C19.19 4.97 16.45 1.5 12.69 0.4L12.68 0.39ZM11.65 11.71C11.01 12.32 10.03 12.63 8.72 12.63H7.36C7.09 12.63 6.86 12.41 6.86 12.13V6.06C6.86 5.79 7.08 5.56 7.36 5.56H8.72C10.03 5.56 11.01 5.87 11.65 6.49C12.29 7.1 12.61 7.98 12.61 9.1C12.61 10.22 12.29 11.09 11.65 11.71ZM34 9.1V14.38C34 14.65 33.78 14.88 33.5 14.88H32.36C30.88 14.88 29.76 15.2 29.02 15.84C28.28 16.48 27.91 17.6 27.91 19.2V27.71C27.91 27.98 27.69 28.21 27.41 28.21H22.46C22.19 28.21 21.96 27.99 21.96 27.71V9.29C21.96 9.02 22.18 8.79 22.46 8.79H27.41C27.68 8.79 27.91 9.01 27.91 9.29V10.58C27.91 11.04 28.46 11.25 28.78 10.91C29.29 10.35 29.87 9.88 30.52 9.5C31.41 8.97 32.39 8.67 33.45 8.6C33.74 8.58 34 8.8 34 9.1ZM43.71 4.32C43.7 4.37 43.68 4.42 43.65 4.47C42.93 5.79 41.82 6.44 40.32 6.44C38.82 6.44 37.66 5.77 36.95 4.43C36.93 4.38 36.91 4.33 36.9 4.28C36.58 2.87 36.87 1.75 37.77 0.92C38.43 0.31 39.28 0 40.33 0C41.38 0 42.19 0.31 42.85 0.92C43.75 1.76 44.04 2.89 43.71 4.31V4.32ZM43.29 9.29V27.71C43.29 27.98 43.07 28.21 42.79 28.21H37.84C37.57 28.21 37.34 27.99 37.34 27.71V9.29C37.34 9.02 37.56 8.79 37.84 8.79H42.79C43.06 8.79 43.29 9.01 43.29 9.29ZM63.9 10.79C65.26 12.26 65.93 14.29 65.93 16.86V27.7C65.93 27.97 65.71 28.2 65.43 28.2H60.51C60.24 28.2 60.01 27.98 60.01 27.7V17.66C60.01 16.36 59.67 15.35 59 14.63C58.33 13.91 57.42 13.55 56.29 13.55C55.16 13.55 54.25 13.91 53.58 14.63C52.91 15.35 52.57 16.36 52.57 17.66V27.7C52.57 27.97 52.35 28.2 52.07 28.2H47.12C46.85 28.2 46.62 27.98 46.62 27.7V9.29C46.62 9.02 46.84 8.79 47.12 8.79H52.07C52.34 8.79 52.57 9.01 52.57 9.29V10.05C52.57 10.49 53.09 10.71 53.41 10.41C53.87 9.99 54.4 9.63 55 9.34C56.02 8.84 57.17 8.59 58.45 8.59C60.72 8.59 62.54 9.33 63.9 10.8V10.79ZM80.97 23.66V27.71C80.97 27.98 80.75 28.21 80.47 28.21H77.94C75.78 28.21 74.1 27.68 72.9 26.63C71.7 25.58 71.09 23.85 71.09 21.46V14.23C71.09 13.96 70.87 13.73 70.59 13.73H69.22C68.95 13.73 68.72 13.51 68.72 13.23V9.29C68.72 9.02 68.94 8.79 69.22 8.79H70.59C70.86 8.79 71.09 8.57 71.09 8.29V4.56C71.09 4.29 71.31 4.06 71.59 4.06H76.54C76.81 4.06 77.04 4.28 77.04 4.56V8.29C77.04 8.56 77.26 8.79 77.54 8.79H80.44C80.71 8.79 80.94 9.01 80.94 9.29V13.23C80.94 13.5 80.72 13.73 80.44 13.73H77.54C77.27 13.73 77.04 13.95 77.04 14.23V21.52C77.04 22.1 77.18 22.52 77.46 22.77C77.74 23.02 78.2 23.15 78.85 23.15H80.47C80.74 23.15 80.97 23.37 80.97 23.65V23.66Z" fill="white"/>
<defs>
<linearGradient id="paint0_linear_6732_24563" x1="90.0699" y1="12.2602" x2="93.7999" y2="10.1902" gradientUnits="userSpaceOnUse">
<stop stop-color="white" stop-opacity="0"/>
<stop offset="1" stop-opacity="0.8"/>
</linearGradient>
</defs>
</svg>
