<svg width="214" height="54" viewBox="0 0 214 54" fill="none" xmlns="http://www.w3.org/2000/svg">
<g clip-path="url(#clip0_6730_24530)">
<path d="M93.4703 49.6313H90.4116L89.9055 51.0947H88.2881L91.0497 43.4039H92.8432L95.6048 51.0947H93.9764L93.4703 49.6313ZM93.0522 48.399L91.9409 45.1864L90.8296 48.399H93.0522ZM106.662 47.8049C106.941 48.157 107.08 48.5604 107.08 49.0151C107.08 49.4261 106.979 49.7872 106.777 50.0989C106.576 50.4108 106.284 50.6545 105.903 50.8306C105.521 51.0067 105.07 51.0947 104.549 51.0947H101.238V43.4149H104.406C104.927 43.4149 105.376 43.4993 105.754 43.668C106.132 43.8368 106.418 44.0714 106.612 44.3722C106.807 44.673 106.904 45.0141 106.904 45.3954C106.904 45.8428 106.785 46.217 106.546 46.5176C106.308 46.8185 105.991 47.0311 105.595 47.1558C106.027 47.2366 106.383 47.4528 106.662 47.8049ZM102.778 46.5837H104.186C104.553 46.5837 104.836 46.5011 105.034 46.3361C105.232 46.1711 105.331 45.9345 105.331 45.6264C105.331 45.3183 105.232 45.08 105.034 44.9112C104.836 44.7426 104.553 44.6583 104.186 44.6583H102.778V46.5837ZM105.204 49.5763C105.413 49.4002 105.518 49.151 105.518 48.8281C105.518 48.4981 105.408 48.2395 105.188 48.0525C104.967 47.8654 104.671 47.7719 104.296 47.7719H102.778V49.8403H104.329C104.703 49.8403 104.995 49.7524 105.204 49.5763ZM109.407 44.0145C109.227 43.8423 109.137 43.6278 109.137 43.3709C109.137 43.1143 109.227 42.8997 109.407 42.7273C109.587 42.555 109.812 42.4688 110.084 42.4688C110.355 42.4688 110.58 42.555 110.76 42.7273C110.94 42.8997 111.03 43.1143 111.03 43.3709C111.03 43.6278 110.94 43.8423 110.76 44.0145C110.58 44.1869 110.355 44.2732 110.084 44.2732C109.812 44.2732 109.587 44.1869 109.407 44.0145ZM110.843 44.9994V51.0947H109.302V44.9994H110.843ZM114.76 49.8294H117.477V51.0947H113.01V49.8514L115.673 46.2646H113.021V44.9994H117.444V46.2426L114.76 49.8294ZM121.449 46.2646V49.2132C121.449 49.4187 121.499 49.5673 121.598 49.6589C121.697 49.7506 121.863 49.7964 122.098 49.7964H122.813V51.0947H121.845C120.547 51.0947 119.898 50.4639 119.898 49.2023V46.2646H119.172V44.9994H119.898V43.4919H121.449V44.9994H122.813V46.2646H121.449ZM130.537 48.5091H126.081C126.118 48.9491 126.272 49.294 126.543 49.5434C126.814 49.7927 127.148 49.9174 127.544 49.9174C128.116 49.9174 128.523 49.6717 128.766 49.1803H130.427C130.251 49.7671 129.913 50.2493 129.415 50.627C128.916 51.0049 128.303 51.1937 127.577 51.1937C126.99 51.1937 126.464 51.0635 125.998 50.8031C125.533 50.5428 125.17 50.1742 124.909 49.6973C124.649 49.2206 124.519 48.6705 124.519 48.047C124.519 47.4162 124.647 46.8625 124.904 46.3856C125.16 45.9089 125.52 45.5422 125.982 45.2854C126.444 45.0286 126.976 44.9003 127.577 44.9003C128.157 44.9003 128.676 45.0251 129.134 45.2743C129.592 45.5238 129.948 45.8777 130.201 46.3361C130.454 46.7946 130.581 47.3208 130.581 47.9149C130.581 48.135 130.566 48.3331 130.537 48.5091ZM128.986 47.4749C128.978 47.0787 128.835 46.7615 128.557 46.5231C128.278 46.2848 127.937 46.1655 127.533 46.1655C127.152 46.1655 126.831 46.281 126.571 46.5122C126.31 46.7432 126.151 47.0642 126.092 47.4749H128.986ZM132.682 46.3911C132.939 45.9179 133.295 45.5514 133.749 45.2908C134.204 45.0305 134.725 44.9003 135.312 44.9003C136.067 44.9003 136.693 45.0892 137.188 45.4669C137.683 45.8447 138.015 46.3745 138.183 47.0568H136.522C136.434 46.7927 136.286 46.5856 136.077 46.4351C135.867 46.2848 135.609 46.2095 135.301 46.2095C134.861 46.2095 134.512 46.3692 134.256 46.6881C133.999 47.0072 133.87 47.4602 133.87 48.047C133.87 48.6265 133.999 49.0757 134.256 49.3948C134.512 49.7138 134.861 49.8734 135.301 49.8734C135.924 49.8734 136.331 49.5946 136.522 49.0373H138.183C138.015 49.6973 137.681 50.2218 137.182 50.6105C136.683 50.9994 136.06 51.1937 135.312 51.1937C134.725 51.1937 134.204 51.0635 133.749 50.8031C133.295 50.5428 132.939 50.1759 132.682 49.7029C132.425 49.2298 132.297 48.6779 132.297 48.047C132.297 47.4162 132.425 46.8642 132.682 46.3911ZM144.972 45.2139C145.331 45.4156 145.612 45.7127 145.814 46.1051C146.015 46.4975 146.116 46.9688 146.116 47.5189V51.0947H144.576V47.7279C144.576 47.2438 144.455 46.8716 144.213 46.6111C143.971 46.3508 143.641 46.2206 143.223 46.2206C142.797 46.2206 142.462 46.3508 142.216 46.6111C141.97 46.8716 141.847 47.2438 141.847 47.7279V51.0947H140.307V42.9529H141.847V45.7585C142.045 45.4944 142.309 45.2873 142.639 45.1368C142.97 44.9865 143.336 44.9112 143.74 44.9112C144.202 44.9112 144.612 45.0122 144.972 45.2139ZM152.316 45.2139C152.657 44.6162 153.123 44.1504 153.713 43.8166C154.304 43.4829 154.966 43.316 155.699 43.316C156.557 43.316 157.309 43.5359 157.955 43.976C158.6 44.4162 159.051 45.0251 159.308 45.8024H157.537C157.361 45.4357 157.113 45.1607 156.794 44.9772C156.475 44.794 156.106 44.7022 155.688 44.7022C155.241 44.7022 154.843 44.8068 154.494 45.0158C154.146 45.2248 153.874 45.5202 153.68 45.9015C153.486 46.2829 153.389 46.7305 153.389 47.2438C153.389 47.7499 153.486 48.1956 153.68 48.5807C153.874 48.9657 154.146 49.2627 154.494 49.4717C154.843 49.6809 155.241 49.7853 155.688 49.7853C156.106 49.7853 156.475 49.6918 156.794 49.5048C157.113 49.3178 157.361 49.041 157.537 48.6742H159.308C159.051 49.459 158.602 50.0697 157.96 50.5059C157.318 50.9425 156.565 51.1606 155.699 51.1606C154.966 51.1606 154.304 50.9939 153.713 50.66C153.123 50.3264 152.657 49.8623 152.316 49.2682C151.975 48.6742 151.804 47.9994 151.804 47.2438C151.804 46.4884 151.975 45.8118 152.316 45.2139ZM162.741 50.8031C162.271 50.5428 161.903 50.1742 161.635 49.6973C161.367 49.2206 161.233 48.6705 161.233 48.047C161.233 47.4236 161.371 46.8735 161.646 46.3965C161.921 45.9198 162.297 45.5514 162.774 45.2908C163.25 45.0305 163.782 44.9003 164.369 44.9003C164.956 44.9003 165.487 45.0305 165.964 45.2908C166.441 45.5514 166.817 45.9198 167.092 46.3965C167.367 46.8735 167.505 47.4236 167.505 48.047C167.505 48.6705 167.363 49.2206 167.081 49.6973C166.799 50.1742 166.417 50.5428 165.937 50.8031C165.456 51.0635 164.919 51.1937 164.325 51.1937C163.738 51.1937 163.21 51.0635 162.741 50.8031ZM165.112 49.6478C165.357 49.5122 165.554 49.3086 165.7 49.0373C165.847 48.7659 165.92 48.4359 165.92 48.047C165.92 47.4676 165.768 47.0221 165.464 46.7101C165.159 46.3984 164.787 46.2426 164.347 46.2426C163.907 46.2426 163.538 46.3984 163.241 46.7101C162.944 47.0221 162.796 47.4676 162.796 48.047C162.796 48.6265 162.94 49.0721 163.23 49.3837C163.52 49.6956 163.885 49.8514 164.325 49.8514C164.604 49.8514 164.866 49.7837 165.112 49.6478ZM179.008 45.599C179.466 46.0575 179.695 46.6974 179.695 47.5189V51.0947H178.155V47.7279C178.155 47.2512 178.034 46.8862 177.792 46.6332C177.55 46.3801 177.22 46.2535 176.802 46.2535C176.384 46.2535 176.052 46.3801 175.806 46.6332C175.56 46.8862 175.437 47.2512 175.437 47.7279V51.0947H173.897V47.7279C173.897 47.2512 173.776 46.8862 173.534 46.6332C173.292 46.3801 172.962 46.2535 172.544 46.2535C172.118 46.2535 171.783 46.3801 171.537 46.6332C171.291 46.8862 171.168 47.2512 171.168 47.7279V51.0947H169.628V44.9994H171.168V45.7365C171.366 45.4798 171.621 45.2781 171.933 45.1313C172.245 44.9846 172.588 44.9112 172.962 44.9112C173.439 44.9112 173.864 45.0122 174.238 45.2139C174.612 45.4156 174.902 45.7034 175.107 46.0776C175.305 45.7254 175.593 45.4431 175.971 45.2303C176.349 45.0177 176.758 44.9112 177.198 44.9112C177.946 44.9112 178.549 45.1406 179.008 45.599ZM184.509 45.1808C184.857 44.9938 185.255 44.9003 185.703 44.9003C186.223 44.9003 186.694 45.0286 187.116 45.2854C187.538 45.5422 187.872 45.907 188.118 46.3801C188.363 46.8531 188.486 47.4016 188.486 48.025C188.486 48.6485 188.363 49.2005 188.118 49.6809C187.872 50.1613 187.538 50.5335 187.116 50.7975C186.694 51.0616 186.223 51.1937 185.703 51.1937C185.255 51.1937 184.861 51.1019 184.52 50.9186C184.179 50.7353 183.902 50.5043 183.689 50.2254V53.9993H182.149V44.9994H183.689V45.8795C183.887 45.6009 184.16 45.3678 184.509 45.1808ZM186.687 47.0732C186.537 46.8055 186.339 46.602 186.093 46.4627C185.847 46.3234 185.582 46.2535 185.295 46.2535C185.017 46.2535 184.754 46.325 184.509 46.4681C184.263 46.6111 184.065 46.8185 183.915 47.0898C183.764 47.3612 183.689 47.6803 183.689 48.047C183.689 48.4139 183.764 48.7329 183.915 49.0042C184.065 49.2757 184.263 49.4828 184.509 49.6258C184.754 49.7688 185.017 49.8403 185.295 49.8403C185.582 49.8403 185.847 49.7671 186.093 49.6203C186.339 49.4736 186.537 49.2646 186.687 48.9931C186.837 48.7219 186.913 48.399 186.913 48.025C186.913 47.6583 186.837 47.3411 186.687 47.0732ZM190.571 46.3856C190.817 45.9089 191.15 45.5422 191.572 45.2854C191.994 45.0286 192.465 44.9003 192.986 44.9003C193.441 44.9003 193.839 44.9921 194.18 45.1753C194.521 45.3588 194.794 45.5898 194.999 45.8684V44.9994H196.551V51.0947H194.999V50.2034C194.802 50.4895 194.528 50.726 194.18 50.9132C193.831 51.1002 193.43 51.1937 192.975 51.1937C192.462 51.1937 191.994 51.0616 191.572 50.7975C191.15 50.5335 190.817 50.1613 190.571 49.6809C190.325 49.2005 190.202 48.6485 190.202 48.025C190.202 47.4088 190.325 46.8625 190.571 46.3856ZM194.78 47.0843C194.633 46.8166 194.435 46.6111 194.185 46.4681C193.936 46.325 193.668 46.2535 193.382 46.2535C193.096 46.2535 192.832 46.3234 192.59 46.4627C192.348 46.602 192.152 46.8055 192.001 47.0732C191.851 47.3411 191.776 47.6583 191.776 48.025C191.776 48.3919 191.851 48.7126 192.001 48.9877C192.152 49.2627 192.35 49.4736 192.595 49.6203C192.841 49.7671 193.103 49.8403 193.382 49.8403C193.668 49.8403 193.936 49.7688 194.185 49.6258C194.435 49.4828 194.633 49.2776 194.78 49.0097C194.926 48.742 194.999 48.421 194.999 48.047C194.999 47.6728 194.926 47.3521 194.78 47.0843ZM204.187 45.599C204.634 46.0575 204.858 46.6974 204.858 47.5189V51.0947H203.317V47.7279C203.317 47.2438 203.196 46.8716 202.954 46.6111C202.712 46.3508 202.382 46.2206 201.964 46.2206C201.539 46.2206 201.203 46.3508 200.957 46.6111C200.711 46.8716 200.589 47.2438 200.589 47.7279V51.0947H199.048V44.9994H200.589V45.7585C200.794 45.4944 201.056 45.2873 201.375 45.1368C201.694 44.9865 202.045 44.9112 202.426 44.9112C203.152 44.9112 203.739 45.1406 204.187 45.599ZM213.142 44.9994L209.369 53.9773H207.729L209.05 50.9406L206.607 44.9994H208.334L209.908 49.2572L211.503 44.9994H213.142Z" fill="white"/>
<path d="M136.164 10.2268C134.798 9.3736 133.274 8.94638 131.591 8.94638C130.151 8.94638 128.895 9.23915 127.823 9.82441C127.206 10.1607 126.666 10.5571 126.203 11.0138C125.865 11.3466 125.298 11.1282 125.298 10.6541V9.76317C125.298 9.47376 125.064 9.23915 124.774 9.23915H119.566C119.277 9.23915 119.042 9.47376 119.042 9.76317V38.8621C119.042 39.1515 119.277 39.3861 119.566 39.3861H124.774C125.064 39.3861 125.298 39.1515 125.298 38.8621V28.248C125.298 27.7771 125.859 27.5568 126.198 27.8839C126.666 28.3358 127.214 28.7308 127.841 29.0689C128.926 29.6542 130.176 29.947 131.591 29.947C133.274 29.947 134.798 29.5141 136.164 28.648C137.53 27.7825 138.609 26.5508 139.402 24.953C140.195 23.3556 140.591 21.5081 140.591 19.4099C140.591 17.3127 140.195 15.4715 139.402 13.8857C138.609 12.3005 137.53 11.081 136.164 10.2268ZM132.908 23.1235C132.03 24.0382 130.969 24.4956 129.725 24.4956C128.481 24.4956 127.426 24.0445 126.56 23.142C125.694 22.2397 125.261 21.008 125.261 19.4467C125.261 17.886 125.694 16.6542 126.56 15.7514C127.426 14.8495 128.481 14.3977 129.725 14.3977C130.993 14.3977 132.06 14.8432 132.926 15.7332C133.792 16.6238 134.225 17.8496 134.225 19.4099C134.225 20.9712 133.786 22.209 132.908 23.1235ZM212.725 0.0312515H207.517C207.228 0.0312515 206.993 0.265874 206.993 0.555266V10.6454C206.993 11.1163 206.432 11.3366 206.093 11.0095C205.625 10.5575 205.077 10.1626 204.45 9.82441C203.365 9.23915 202.115 8.94638 200.7 8.94638C199.017 8.94638 197.493 9.37928 196.127 10.2454C194.761 11.1108 193.682 12.3426 192.889 13.9403C192.096 15.5378 191.7 17.3853 191.7 19.4834C191.7 21.5807 192.096 23.4219 192.889 25.0077C193.682 26.5929 194.761 27.8124 196.127 28.6665C197.493 29.5198 199.017 29.947 200.7 29.947C202.14 29.947 203.396 29.6542 204.468 29.0689C205.085 28.7327 205.625 28.3363 206.088 27.8796C206.426 27.5468 206.993 27.7652 206.993 28.2392V29.1302C206.993 29.4196 207.228 29.6542 207.517 29.6542H212.725C213.014 29.6542 213.249 29.4196 213.249 29.1302V0.555264C213.249 0.265859 213.014 0.0312515 212.725 0.0312515ZM205.731 23.142C204.865 24.0439 203.81 24.4956 202.566 24.4956C201.298 24.4956 200.231 24.0502 199.365 23.1602C198.499 22.2696 198.066 21.0438 198.066 19.4834C198.066 17.9221 198.505 16.6844 199.383 15.7699C200.261 14.8551 201.322 14.3977 202.566 14.3977C203.81 14.3977 204.865 14.8489 205.731 15.7514C206.597 16.6536 207.03 17.8854 207.03 19.4467C207.03 21.0074 206.597 22.2391 205.731 23.142ZM164.433 9.23915H159.225C158.936 9.23915 158.701 9.47376 158.701 9.76317V10.6163C158.701 11.0788 158.139 11.3331 157.811 11.0072C157.354 10.5532 156.815 10.159 156.195 9.82441C155.109 9.23915 153.847 8.94638 152.408 8.94638C150.725 8.94638 149.201 9.3736 147.835 10.2268C146.469 11.081 145.39 12.3005 144.597 13.8857C143.804 15.4715 143.408 17.3127 143.408 19.4099C143.408 21.5081 143.804 23.3556 144.597 24.953C145.39 26.5508 146.469 27.7825 147.835 28.648C149.201 29.5141 150.713 29.947 152.372 29.947C153.81 29.947 155.073 29.6542 156.159 29.0689C156.784 28.7315 157.33 28.3333 157.798 27.8744C158.135 27.5428 158.701 27.7616 158.701 28.235V29.1302C158.701 29.4196 158.936 29.6542 159.225 29.6542H164.433C164.723 29.6542 164.958 29.4196 164.958 29.1302V9.76317C164.958 9.47376 164.723 9.23915 164.433 9.23915ZM157.402 23.142C156.536 24.0445 155.482 24.4956 154.238 24.4956C152.994 24.4956 151.938 24.0382 151.073 23.1235C150.207 22.209 149.774 20.9712 149.774 19.4099C149.774 16.9845 150.819 15.3675 152.912 14.5612C152.947 14.5476 152.986 14.5362 153.023 14.5286C154.808 14.1605 156.267 14.5693 157.402 15.7514C158.268 16.6542 158.701 17.886 158.701 19.4467C158.701 21.008 158.268 22.2397 157.402 23.142ZM186.561 11.3427C187.988 12.892 188.701 15.0197 188.701 17.7271V29.1302C188.701 29.4196 188.467 29.6542 188.177 29.6542H183.005C182.716 29.6542 182.481 29.4196 182.481 29.1302V18.5686C182.481 17.203 182.128 16.1419 181.421 15.3857C180.713 14.6299 179.762 14.2513 178.567 14.2513C177.371 14.2513 176.42 14.6299 175.713 15.3857C175.005 16.1419 174.652 17.203 174.652 18.5686V29.1302C174.652 29.4196 174.418 29.6542 174.128 29.6542H168.92C168.63 29.6542 168.396 29.4196 168.396 29.1302V9.76317C168.396 9.47376 168.63 9.23915 168.92 9.23915H174.128C174.418 9.23915 174.652 9.47376 174.652 9.76317V10.5603C174.652 11.0234 175.199 11.2484 175.54 10.935C176.02 10.4928 176.578 10.1166 177.213 9.80619C178.286 9.28188 179.494 9.01957 180.835 9.01957C183.225 9.01957 185.134 9.79425 186.561 11.3427Z" fill="white"/>
<path d="M109.085 13.7157C107.78 15.5355 107.78 17.9846 109.087 19.8044L115.539 28.789C115.823 29.1829 115.541 29.7331 115.055 29.7331H107.045C106.662 29.7331 106.301 29.5482 106.077 29.2357L102.659 24.4761L105.579 20.4096C107.146 18.2267 107.146 15.2956 105.579 13.1127L102.659 9.04403L108.794 0.497313C109.019 0.184848 109.379 0 109.762 0H117.774C118.258 0 118.542 0.550123 118.258 0.94402L109.085 13.7157Z" fill="white"/>
<path d="M97.1288 16.7461L97.1187 16.7603L97.1288 16.7746L97.139 16.7603L97.1288 16.7461Z" fill="white"/>
<path d="M104.738 19.8045L97.964 29.2354C97.7399 29.5473 97.3794 29.7322 96.9954 29.7322H88.9865C88.5008 29.7322 88.2188 29.1826 88.5022 28.7881L97.1412 16.7609L88.9494 5.35428C88.6661 4.95976 88.948 4.41016 89.4337 4.41016H97.4427C97.8268 4.41016 98.1873 4.59513 98.4113 4.90708L104.738 13.7172C106.045 15.5361 106.045 17.9857 104.738 19.8045Z" fill="white"/>
<path d="M98.557 14.7877L97.1426 16.7568L88.951 5.35436C88.6675 4.95986 88.9495 4.41016 89.4352 4.41016H97.4373C97.8213 4.41016 98.1819 4.59508 98.4059 4.90698L98.5571 5.11743C100.633 8.00677 100.633 11.8984 98.557 14.7877Z" fill="white"/>
<path opacity="0.8" d="M98.7497 5.37891C100.186 9.66929 98.1305 12.3795 95.6284 14.6497L97.1427 16.7575L98.5572 14.7884C100.456 12.1878 100.744 8.37111 98.7497 5.37891Z" fill="url(#paint0_linear_6730_24530)"/>
<path d="M13.3351 0.402373C12.3705 0.172169 11.3126 0.0464711 10.1644 0.0252915H10.1588C10.0133 0.0154063 9.86644 0.0154063 9.71391 0.0154063H0.523974C0.235857 0.0154063 0 0.25125 0 0.539367V29.1289C0 29.417 0.235857 29.6528 0.523974 29.6528H6.69155C6.98532 29.6528 7.21552 29.417 7.21552 29.1289V19.5406C7.21552 19.2511 7.45138 19.0167 7.73949 19.0167H9.71391C9.793 19.0167 9.87631 19.0167 9.9554 19.011C11.427 18.9955 12.7532 18.8175 13.9268 18.4602H13.9325C17.5692 17.1242 20.1679 13.6287 20.1679 9.52593C20.1679 5.20283 17.2811 1.55623 13.3351 0.402373ZM12.2504 12.3039C11.5739 12.948 10.5472 13.2728 9.16875 13.2728H7.73949C7.45138 13.2728 7.21552 13.0369 7.21552 12.7488V6.36659C7.21552 6.07846 7.45138 5.84262 7.73949 5.84262H9.16875C10.5472 5.84262 11.5739 6.16744 12.2504 6.81711C12.9255 7.46113 13.2616 8.37913 13.2616 9.557C13.2616 10.7419 12.9255 11.6543 12.2504 12.3039ZM35.7544 9.56359V15.1177C35.7544 15.4071 35.5198 15.6417 35.2304 15.6417H34.0347C32.4737 15.6417 31.3028 15.9771 30.5224 16.6478C29.7415 17.3189 29.3519 18.4954 29.3519 20.1784V29.1302C29.3519 29.4196 29.1172 29.6542 28.8278 29.6542H23.6194C23.33 29.6542 23.0954 29.4196 23.0954 29.1302V9.76317C23.0954 9.47377 23.33 9.23916 23.6194 9.23916H28.8278C29.1172 9.23916 29.3519 9.47377 29.3519 9.76317L29.3518 11.121C29.3518 11.6005 29.9363 11.8216 30.2617 11.4695C30.8024 10.8843 31.4138 10.3908 32.0958 9.9891C33.0349 9.43632 34.063 9.11975 35.1808 9.03987C35.4887 9.01786 35.7544 9.25491 35.7544 9.56359ZM45.9697 4.53613C45.9573 4.58973 45.9364 4.64463 45.9099 4.69286C45.149 6.0774 43.9833 6.76842 42.4135 6.76842C40.7952 6.76842 39.6142 6.06626 38.8706 4.65943C38.8457 4.6123 38.826 4.55893 38.8142 4.50695C38.4785 3.02638 38.7817 1.84639 39.7246 0.969484C40.4198 0.323681 41.3161 0 42.4135 0C43.4866 0 44.3709 0.323681 45.066 0.969484C46.0151 1.85214 46.3161 3.04186 45.9697 4.53613ZM45.5235 9.76317V29.1302C45.5235 29.4196 45.2889 29.6542 44.9995 29.6542H39.7911C39.5017 29.6542 39.2671 29.4196 39.2671 29.1302V9.76317C39.2671 9.47377 39.5017 9.23916 39.7911 9.23916H44.9995C45.2889 9.23916 45.5235 9.47377 45.5235 9.76317ZM67.2014 11.3429C68.6281 12.8919 69.3418 15.0197 69.3418 17.727V29.1302C69.3418 29.4196 69.1071 29.6542 68.8177 29.6542H63.6459C63.3565 29.6542 63.1219 29.4196 63.1219 29.1302V18.5685C63.1219 17.203 62.7681 16.1419 62.0611 15.3856C61.3534 14.6297 60.4021 14.2513 59.2072 14.2513C58.012 14.2513 57.0607 14.6297 56.3535 15.3856C55.6458 16.1419 55.2927 17.203 55.2927 18.5685V29.1302C55.2927 29.4196 55.0581 29.6542 54.7686 29.6542H49.5602C49.2708 29.6542 49.0362 29.4196 49.0362 29.1302V9.76317C49.0362 9.47377 49.2708 9.23916 49.5602 9.23916H54.7686C55.0581 9.23916 55.2927 9.47377 55.2927 9.76317V10.5602C55.2927 11.0232 55.8391 11.2482 56.18 10.9348C56.661 10.4927 57.2188 10.1164 57.8536 9.80615C58.9267 9.28188 60.1339 9.01962 61.4757 9.01962C63.8657 9.01962 65.7745 9.79413 67.2014 11.3429ZM85.1476 24.8731V29.1302C85.1476 29.4196 84.9129 29.6542 84.6236 29.6542H81.9646C79.6963 29.6542 77.9275 29.0997 76.6597 27.9895C75.3911 26.8798 74.7571 25.0688 74.7571 22.5565V14.9583C74.7571 14.6689 74.5225 14.4343 74.2331 14.4343H72.7933C72.5039 14.4343 72.2693 14.1997 72.2693 13.9102V9.76317C72.2693 9.47377 72.5039 9.23916 72.7933 9.23916H74.2331C74.5225 9.23916 74.7571 9.00455 74.7571 8.71514V4.78733C74.7571 4.49793 74.9917 4.26332 75.2811 4.26332H80.4893C80.7787 4.26332 81.0133 4.49793 81.0133 4.78733V8.71514C81.0133 9.00455 81.2479 9.23916 81.5373 9.23916H84.587C84.8764 9.23916 85.111 9.47377 85.111 9.76317V13.9102C85.111 14.1997 84.8764 14.4343 84.587 14.4343H81.5373C81.2479 14.4343 81.0133 14.6689 81.0133 14.9583V22.6296C81.0133 23.2396 81.1596 23.6787 81.4523 23.9468C81.745 24.2155 82.2327 24.3491 82.9159 24.3491H84.6236C84.9129 24.3491 85.1476 24.5837 85.1476 24.8731Z" fill="white"/>
</g>
<defs>
<linearGradient id="paint0_linear_6730_24530" x1="94.7089" y1="12.8701" x2="98.6327" y2="10.6861" gradientUnits="userSpaceOnUse">
<stop stop-color="white" stop-opacity="0"/>
<stop offset="1" stop-opacity="0.8"/>
</linearGradient>
<clipPath id="clip0_6730_24530">
<rect width="213.249" height="54" fill="white"/>
</clipPath>
</defs>
</svg>
