<?xml version="1.0" encoding="UTF-8"?>
<svg xmlns="http://www.w3.org/2000/svg" xmlns:xlink="http://www.w3.org/1999/xlink" id="Layer_2" width="220" height="60" viewBox="0 0 220 60">
  <defs>
    <linearGradient id="linear-gradient" x1="114.48" y1="214.93" x2="204.07" y2="214.93" gradientTransform="translate(0 238) scale(1 -1)" gradientUnits="userSpaceOnUse">
      <stop offset="0" stop-color="#f26334"></stop>
      <stop offset="1" stop-color="#fe812f"></stop>
    </linearGradient>
    <linearGradient id="linear-gradient-2" x1="98.9" y1="219.54" x2="113.85" y2="219.54" gradientTransform="translate(0 238) scale(1 -1)" gradientUnits="userSpaceOnUse">
      <stop offset="0" stop-color="#f26334"></stop>
      <stop offset=".22" stop-color="#f26334"></stop>
      <stop offset=".8" stop-color="#fe812f"></stop>
      <stop offset="1" stop-color="#fe812f"></stop>
    </linearGradient>
    <linearGradient id="linear-gradient-3" x1="91.35" y1="221.42" x2="95.08" y2="223.49" gradientTransform="translate(0 238) scale(1 -1)" gradientUnits="userSpaceOnUse">
      <stop offset="0" stop-color="#f46833" stop-opacity="0"></stop>
      <stop offset="1" stop-color="#000" stop-opacity=".8"></stop>
    </linearGradient>
  </defs>
  <g id="Layer_1-2">
    <path d="M211.23,9.4h-.83v-4.36h-1.49v-.71h3.82v.71h-1.49v4.36h0Z" fill="#3f3f41"></path>
    <path d="M215.69,9.4l-1.47-4.24h-.03c.04.63.06,1.22.06,1.77v2.47h-.75v-5.07h1.17l1.41,4.04h.02l1.45-4.04h1.17v5.08h-.8v-2.51c0-.25,0-.58.02-.99s.02-.65.03-.74h-.03l-1.52,4.23h-.73Z" fill="#3f3f41"></path>
    <path d="M90.17,51.53h-2.91l-.48,1.39h-1.54l2.63-7.31h1.71l2.63,7.31h-1.55l-.48-1.39h0ZM89.77,50.35l-1.06-3.06-1.06,3.06h2.12ZM102.71,49.79c.27.34.4.72.4,1.15,0,.39-.1.73-.29,1.03-.19.3-.47.53-.83.7-.36.17-.79.25-1.29.25h-3.15v-7.3h3.01c.5,0,.92.08,1.28.24.36.16.63.38.82.67.18.29.28.61.28.97,0,.43-.11.78-.34,1.07s-.53.49-.91.61c.41.08.75.28,1.01.62h0ZM99.02,48.63h1.34c.35,0,.62-.08.81-.24.19-.16.28-.38.28-.67s-.09-.52-.28-.68c-.19-.16-.46-.24-.81-.24h-1.34v1.83ZM101.33,51.47c.2-.17.3-.4.3-.71s-.1-.56-.31-.74c-.21-.18-.49-.27-.85-.27h-1.44v1.97h1.48c.35,0,.63-.08.83-.25h0ZM105.32,46.18c-.17-.16-.26-.37-.26-.61s.08-.45.26-.61c.17-.16.39-.25.64-.25s.47.08.64.25c.17.16.26.37.26.61s-.08.45-.26.61c-.17.16-.39.25-.64.25s-.47-.08-.64-.25ZM106.69,47.12v5.8h-1.46v-5.8h1.46ZM110.41,51.71h2.59v1.2h-4.25v-1.18l2.53-3.41h-2.52v-1.2h4.21v1.18l-2.55,3.41ZM116.77,48.32v2.8c0,.2.05.34.14.42.09.09.25.13.48.13h.68v1.23h-.92c-1.23,0-1.85-.6-1.85-1.8v-2.79h-.69v-1.2h.69v-1.43h1.48v1.43h1.3v1.2h-1.3ZM125.42,50.46h-4.24c.03.42.18.75.44.98.26.24.57.35.95.35.54,0,.93-.23,1.16-.7h1.58c-.17.56-.49,1.02-.96,1.38-.47.36-1.06.54-1.75.54-.56,0-1.06-.12-1.5-.37-.44-.25-.79-.6-1.04-1.05s-.37-.98-.37-1.57.12-1.13.37-1.58.59-.8,1.03-1.05.94-.37,1.52-.37,1.04.12,1.48.35c.44.24.77.57,1.01,1.01.24.44.36.94.36,1.5,0,.21-.01.4-.04.57h0ZM123.94,49.48c0-.38-.14-.68-.41-.91-.27-.23-.59-.34-.97-.34s-.67.11-.92.33-.4.52-.45.92h2.75ZM127.46,48.44c.24-.45.58-.8,1.01-1.05.43-.25.93-.37,1.49-.37.72,0,1.31.18,1.78.54.47.36.79.86.95,1.51h-1.58c-.08-.25-.22-.45-.42-.59-.2-.14-.44-.22-.74-.22-.42,0-.75.15-.99.45s-.37.73-.37,1.29.12.98.37,1.28.57.45.99.45c.59,0,.98-.27,1.16-.79h1.58c-.16.63-.48,1.13-.95,1.5-.47.37-1.07.55-1.78.55-.56,0-1.05-.12-1.49-.37s-.77-.6-1.01-1.05c-.24-.45-.37-.97-.37-1.58s.12-1.13.37-1.58h0ZM139.14,47.33c.34.19.61.47.8.85s.29.82.29,1.34v3.4h-1.46v-3.2c0-.46-.12-.81-.35-1.06s-.54-.37-.94-.37-.72.12-.96.37-.35.6-.35,1.06v3.2h-1.46v-7.74h1.46v2.67c.19-.25.44-.45.75-.59s.66-.22,1.05-.22c.44,0,.83.1,1.17.29h0ZM146.13,47.33c.32-.57.77-1.01,1.33-1.33.56-.32,1.19-.48,1.89-.48.82,0,1.53.21,2.15.63s1.04,1,1.29,1.74h-1.68c-.17-.35-.4-.61-.71-.79-.3-.17-.65-.26-1.05-.26-.43,0-.8.1-1.14.3-.33.2-.59.48-.77.84s-.28.79-.28,1.28.09.91.28,1.27c.18.37.44.65.77.85s.71.3,1.14.3c.4,0,.75-.09,1.05-.27.3-.18.54-.44.71-.79h1.68c-.24.75-.67,1.33-1.28,1.74-.61.42-1.33.62-2.15.62-.7,0-1.33-.16-1.89-.48s-1.01-.76-1.33-1.32-.49-1.21-.49-1.93.16-1.36.49-1.93h0ZM156.04,52.64c-.45-.25-.8-.6-1.05-1.05-.25-.45-.38-.98-.38-1.57s.13-1.12.39-1.57.62-.8,1.07-1.05c.45-.25.96-.37,1.52-.37s1.06.12,1.52.37c.45.25.81.6,1.07,1.05s.39.98.39,1.57-.13,1.12-.4,1.57-.63.8-1.09,1.05-.97.37-1.53.37-1.06-.12-1.51-.37h0ZM158.3,51.54c.23-.13.42-.32.56-.58s.21-.57.21-.94c0-.55-.15-.97-.44-1.27s-.64-.44-1.06-.44-.77.15-1.05.44-.42.72-.42,1.27.14.97.41,1.27.62.44,1.04.44c.27,0,.51-.07.75-.19h0ZM171.51,47.69c.44.44.66,1.04.66,1.83v3.4h-1.46v-3.2c0-.45-.12-.8-.35-1.04-.23-.24-.54-.36-.94-.36s-.71.12-.95.36c-.23.24-.35.59-.35,1.04v3.2h-1.46v-3.2c0-.45-.12-.8-.35-1.04-.23-.24-.54-.36-.94-.36s-.72.12-.96.36-.35.59-.35,1.04v3.2h-1.46v-5.8h1.46v.7c.19-.24.43-.44.73-.57.3-.14.62-.21.98-.21.45,0,.86.1,1.21.29.35.19.63.47.83.82.19-.34.46-.6.82-.81s.75-.3,1.17-.3c.71,0,1.28.22,1.72.66h0ZM176.74,47.29c.33-.18.71-.27,1.14-.27.5,0,.94.12,1.34.37.4.24.72.59.95,1.04.23.45.35.97.35,1.56s-.12,1.12-.35,1.58-.55.81-.95,1.06c-.4.25-.85.38-1.34.38-.43,0-.8-.09-1.13-.26s-.59-.39-.79-.66v3.59h-1.46v-8.56h1.46v.84c.19-.27.45-.49.78-.66h0ZM178.81,49.09c-.14-.25-.33-.45-.57-.58-.23-.13-.49-.2-.76-.2s-.51.07-.75.2c-.23.13-.42.33-.57.59s-.22.56-.22.91.07.65.22.91c.14.26.33.45.57.59.23.13.48.2.75.2s.52-.07.76-.21c.23-.14.42-.34.57-.6s.22-.57.22-.92-.07-.65-.22-.91h0ZM182.51,48.44c.23-.45.55-.8.95-1.05.4-.24.85-.37,1.34-.37.43,0,.81.09,1.14.26s.58.39.78.66v-.83h1.48v5.8h-1.48v-.85c-.19.27-.45.5-.78.67s-.71.27-1.14.27c-.49,0-.93-.13-1.33-.38s-.72-.61-.95-1.06-.35-.98-.35-1.58.12-1.11.35-1.56h0ZM186.51,49.1c-.14-.25-.33-.45-.57-.59s-.49-.2-.76-.2-.52.07-.75.2c-.23.13-.42.33-.56.58-.14.25-.22.56-.22.91s.07.65.22.92c.14.26.33.46.57.6.23.14.48.21.75.21s.53-.07.76-.2.43-.33.57-.59c.14-.25.21-.56.21-.92s-.07-.66-.21-.92h0ZM195.46,47.69c.42.44.64,1.04.64,1.83v3.4h-1.46v-3.2c0-.46-.12-.81-.35-1.06s-.54-.37-.94-.37-.72.12-.96.37-.35.6-.35,1.06v3.2h-1.46v-5.8h1.46v.72c.2-.25.44-.45.75-.59.3-.14.64-.22,1-.22.69,0,1.25.22,1.67.66h0ZM203.97,47.12l-3.59,8.54h-1.56l1.26-2.89-2.32-5.65h1.64l1.5,4.05,1.52-4.05h1.56Z" fill="#4c4c4c"></path>
    <path d="M130.77,14.05c-1.3-.81-2.75-1.22-4.35-1.22-1.37,0-2.56.28-3.58.84-.59.32-1.1.7-1.54,1.13-.32.32-.86.11-.86-.34v-.85c0-.27-.22-.5-.5-.5h-4.95c-.27,0-.5.22-.5.5v27.67c0,.27.22.5.5.5h4.95c.27,0,.5-.22.5-.5v-10.09c0-.45.53-.66.86-.35.45.43.97.81,1.56,1.13,1.03.56,2.22.84,3.57.84,1.6,0,3.05-.41,4.35-1.24,1.3-.82,2.32-1.99,3.08-3.51.75-1.52,1.13-3.28,1.13-5.27s-.38-3.75-1.13-5.25c-.76-1.51-1.78-2.67-3.08-3.48h0ZM127.67,26.32c-.84.87-1.84,1.31-3.03,1.31s-2.19-.43-3.01-1.29c-.82-.86-1.24-2.03-1.24-3.51s.41-2.66,1.24-3.51c.82-.86,1.83-1.29,3.01-1.29s2.22.42,3.04,1.27c.82.85,1.24,2.01,1.24,3.5s-.42,2.66-1.25,3.53ZM203.58,4.36h-4.95c-.27,0-.5.22-.5.5v9.6c0,.45-.53.66-.86.35-.45-.43-.97-.81-1.56-1.13-1.03-.56-2.22-.84-3.57-.84-1.6,0-3.05.41-4.35,1.24-1.3.82-2.32,1.99-3.08,3.51-.75,1.52-1.13,3.28-1.13,5.27s.38,3.75,1.13,5.25c.76,1.51,1.78,2.67,3.08,3.48,1.3.81,2.75,1.22,4.35,1.22,1.37,0,2.56-.28,3.58-.84.59-.32,1.1-.7,1.54-1.13.32-.32.86-.11.86.34v.85c0,.27.22.5.5.5h4.95c.27,0,.5-.22.5-.5V4.86c0-.27-.22-.5-.5-.5ZM196.92,26.34c-.82.86-1.83,1.29-3.01,1.29s-2.22-.42-3.04-1.27c-.82-.85-1.24-2.01-1.24-3.5s.42-2.66,1.25-3.53,1.84-1.31,3.03-1.31,2.19.43,3.01,1.29c.82.86,1.24,2.03,1.24,3.51s-.41,2.66-1.24,3.51ZM157.65,13.11h-4.95c-.27,0-.5.22-.5.5v.81c0,.44-.54.68-.85.37-.44-.43-.95-.81-1.54-1.13-1.03-.56-2.23-.84-3.6-.84-1.6,0-3.05.41-4.35,1.22-1.3.81-2.32,1.97-3.08,3.48-.75,1.51-1.13,3.26-1.13,5.25s.38,3.75,1.13,5.27c.75,1.52,1.78,2.69,3.08,3.51,1.3.82,2.74,1.24,4.31,1.24,1.37,0,2.57-.28,3.6-.84.59-.32,1.11-.7,1.56-1.14.32-.32.86-.11.86.34v.85c0,.27.22.5.5.5h4.95c.27,0,.5-.22.5-.5V13.61c0-.27-.22-.5-.5-.5ZM150.96,26.34c-.82.86-1.83,1.29-3.01,1.29s-2.19-.44-3.01-1.31-1.23-2.05-1.23-3.53c0-2.31.99-3.84,2.98-4.61.03-.01.07-.02.11-.03,1.7-.35,3.09.04,4.16,1.16.82.86,1.24,2.03,1.24,3.51s-.41,2.66-1.24,3.51ZM178.69,15.11c1.36,1.47,2.03,3.5,2.03,6.07v10.84c0,.27-.22.5-.5.5h-4.92c-.27,0-.5-.22-.5-.5v-10.04c0-1.3-.34-2.31-1.01-3.03-.67-.72-1.58-1.08-2.71-1.08s-2.04.36-2.71,1.08c-.67.72-1.01,1.73-1.01,3.03v10.04c0,.27-.22.5-.5.5h-4.95c-.27,0-.5-.22-.5-.5V13.61c0-.27.22-.5.5-.5h4.95c.27,0,.5.22.5.5v.76c0,.44.52.66.84.36.46-.42.99-.78,1.59-1.07,1.02-.5,2.17-.75,3.45-.75,2.27,0,4.09.74,5.45,2.21h0Z" fill="url(#linear-gradient)"></path>
    <path d="M105.01,17.37c-1.24,1.73-1.24,4.06,0,5.79l6.13,8.54c.27.37,0,.9-.46.9h-7.62c-.36,0-.71-.18-.92-.47l-3.25-4.53,2.78-3.87c1.49-2.08,1.49-4.86,0-6.94l-2.78-3.87,5.83-8.13c.22-.3.56-.47.92-.47h7.62c.46,0,.73.52.46.9l-8.72,12.15h0Z" fill="url(#linear-gradient-2)"></path>
    <path d="M93.65,20.25v.02s0,.02,0,.02v-.02s0-.02,0-.02Z" fill="#fff"></path>
    <path d="M100.88,23.16l-6.44,8.97c-.21.3-.55.47-.92.47h-7.62c-.46,0-.73-.52-.46-.9l8.22-11.44-7.79-10.85c-.27-.37,0-.9.46-.9h7.62c.37,0,.71.18.92.47l6.02,8.38c1.24,1.73,1.24,4.06,0,5.79h0Z" fill="#262626"></path>
    <path d="M95,18.39l-1.34,1.87-7.79-10.84c-.27-.37,0-.9.46-.9h7.61c.37,0,.71.18.92.47l.14.2c1.97,2.75,1.97,6.45,0,9.2h0Z" fill="#ff8327"></path>
    <path d="M95.2,9.48c1.36,4.08-.6,6.62-2.98,8.78l1.44,2,1.34-1.87c1.81-2.47,2.07-6.03.2-8.91h0Z" fill="url(#linear-gradient-3)" opacity=".8"></path>
    <path d="M13.96,4.71c-.92-.22-1.92-.34-3.01-.36h0c-.14,0-.28,0-.42,0H1.78c-.27,0-.5.22-.5.5v27.19c0,.27.22.5.5.5h5.87c.28,0,.5-.22.5-.5v-9.12c0-.28.22-.5.5-.5h1.88c.08,0,.15,0,.23,0,1.4-.02,2.66-.18,3.78-.52h0c3.46-1.27,5.93-4.59,5.93-8.5,0-4.11-2.74-7.58-6.5-8.68ZM12.93,16.03c-.64.61-1.62.92-2.93.92h-1.36c-.27,0-.5-.22-.5-.5v-6.07c0-.27.22-.5.5-.5h1.36c1.31,0,2.29.31,2.93.93.64.61.96,1.49.96,2.61s-.32,1.99-.96,2.61h0ZM35.28,13.42v5.28c0,.27-.22.5-.5.5h-1.14c-1.48,0-2.6.32-3.34.96s-1.11,1.76-1.11,3.36v8.51c0,.27-.22.5-.5.5h-4.95c-.27,0-.5-.22-.5-.5V13.61c0-.27.22-.5.5-.5h4.95c.27,0,.5.22.5.5v1.29c0,.46.55.67.87.33.51-.56,1.09-1.03,1.74-1.41.89-.53,1.87-.83,2.93-.9.29-.02.55.2.55.5h0ZM44.99,8.64c-.01.05-.03.1-.06.15-.72,1.32-1.83,1.97-3.33,1.97s-2.66-.67-3.37-2.01c-.02-.05-.04-.1-.05-.15-.32-1.41-.03-2.53.87-3.36.66-.61,1.51-.92,2.56-.92s1.86.31,2.52.92c.9.84,1.19,1.97.86,3.39h0ZM44.57,13.61v18.42c0,.27-.22.5-.5.5h-4.95c-.27,0-.5-.22-.5-.5V13.61c0-.27.22-.5.5-.5h4.95c.27,0,.5.22.5.5ZM65.18,15.11c1.36,1.47,2.03,3.5,2.03,6.07v10.84c0,.27-.22.5-.5.5h-4.92c-.27,0-.5-.22-.5-.5v-10.04c0-1.3-.34-2.31-1.01-3.03-.67-.72-1.58-1.08-2.71-1.08s-2.04.36-2.71,1.08-1.01,1.73-1.01,3.03v10.04c0,.27-.22.5-.5.5h-4.95c-.27,0-.5-.22-.5-.5V13.61c0-.27.22-.5.5-.5h4.95c.27,0,.5.22.5.5v.76c0,.44.52.66.84.36.46-.42.99-.78,1.59-1.07,1.02-.5,2.17-.75,3.45-.75,2.27,0,4.09.74,5.45,2.21h0ZM82.25,27.98v4.05c0,.27-.22.5-.5.5h-2.53c-2.16,0-3.84-.53-5.04-1.58s-1.81-2.78-1.81-5.17v-7.23c0-.27-.22-.5-.5-.5h-1.37c-.27,0-.5-.22-.5-.5v-3.94c0-.27.22-.5.5-.5h1.37c.27,0,.5-.22.5-.5v-3.73c0-.27.22-.5.5-.5h4.95c.27,0,.5.22.5.5v3.73c0,.27.22.5.5.5h2.9c.27,0,.5.22.5.5v3.94c0,.27-.22.5-.5.5h-2.9c-.27,0-.5.22-.5.5v7.29c0,.58.14,1,.42,1.25.28.25.74.38,1.39.38h1.62c.27,0,.5.22.5.5h0Z" fill="#262626"></path>
  </g>
</svg>
